%TF.GenerationSoftware,KiCad,Pcbnew,10.0.3-10.0.3~ubuntu24.04.1*%
%TF.CreationDate,2026-05-28T09:56:07-06:00*%
%TF.ProjectId,SensorBoard_v1.5,53656e73-6f72-4426-9f61-72645f76312e,rev?*%
%TF.SameCoordinates,Original*%
%TF.FileFunction,Legend,Top*%
%TF.FilePolarity,Positive*%
%FSLAX46Y46*%
G04 Gerber Fmt 4.6, Leading zero omitted, Abs format (unit mm)*
G04 Created by KiCad (PCBNEW 10.0.3-10.0.3~ubuntu24.04.1) date 2026-05-28 09:56:07*
%MOMM*%
%LPD*%
G01*
G04 APERTURE LIST*
%ADD10C,0.200000*%
%ADD11C,0.150000*%
%ADD12C,0.120000*%
%ADD13C,0.152400*%
%ADD14C,0.508000*%
G04 APERTURE END LIST*
D10*
X58244017Y-57454136D02*
X59444017Y-57054136D01*
X59444017Y-57054136D02*
X58244017Y-56654136D01*
X59329732Y-55568422D02*
X59386875Y-55625565D01*
X59386875Y-55625565D02*
X59444017Y-55796993D01*
X59444017Y-55796993D02*
X59444017Y-55911279D01*
X59444017Y-55911279D02*
X59386875Y-56082708D01*
X59386875Y-56082708D02*
X59272589Y-56196993D01*
X59272589Y-56196993D02*
X59158303Y-56254136D01*
X59158303Y-56254136D02*
X58929732Y-56311279D01*
X58929732Y-56311279D02*
X58758303Y-56311279D01*
X58758303Y-56311279D02*
X58529732Y-56254136D01*
X58529732Y-56254136D02*
X58415446Y-56196993D01*
X58415446Y-56196993D02*
X58301160Y-56082708D01*
X58301160Y-56082708D02*
X58244017Y-55911279D01*
X58244017Y-55911279D02*
X58244017Y-55796993D01*
X58244017Y-55796993D02*
X58301160Y-55625565D01*
X58301160Y-55625565D02*
X58358303Y-55568422D01*
X59329732Y-54368422D02*
X59386875Y-54425565D01*
X59386875Y-54425565D02*
X59444017Y-54596993D01*
X59444017Y-54596993D02*
X59444017Y-54711279D01*
X59444017Y-54711279D02*
X59386875Y-54882708D01*
X59386875Y-54882708D02*
X59272589Y-54996993D01*
X59272589Y-54996993D02*
X59158303Y-55054136D01*
X59158303Y-55054136D02*
X58929732Y-55111279D01*
X58929732Y-55111279D02*
X58758303Y-55111279D01*
X58758303Y-55111279D02*
X58529732Y-55054136D01*
X58529732Y-55054136D02*
X58415446Y-54996993D01*
X58415446Y-54996993D02*
X58301160Y-54882708D01*
X58301160Y-54882708D02*
X58244017Y-54711279D01*
X58244017Y-54711279D02*
X58244017Y-54596993D01*
X58244017Y-54596993D02*
X58301160Y-54425565D01*
X58301160Y-54425565D02*
X58358303Y-54368422D01*
X62165026Y-56654136D02*
X62107883Y-56768422D01*
X62107883Y-56768422D02*
X62107883Y-56939850D01*
X62107883Y-56939850D02*
X62165026Y-57111279D01*
X62165026Y-57111279D02*
X62279312Y-57225564D01*
X62279312Y-57225564D02*
X62393598Y-57282707D01*
X62393598Y-57282707D02*
X62622169Y-57339850D01*
X62622169Y-57339850D02*
X62793598Y-57339850D01*
X62793598Y-57339850D02*
X63022169Y-57282707D01*
X63022169Y-57282707D02*
X63136455Y-57225564D01*
X63136455Y-57225564D02*
X63250741Y-57111279D01*
X63250741Y-57111279D02*
X63307883Y-56939850D01*
X63307883Y-56939850D02*
X63307883Y-56825564D01*
X63307883Y-56825564D02*
X63250741Y-56654136D01*
X63250741Y-56654136D02*
X63193598Y-56596993D01*
X63193598Y-56596993D02*
X62793598Y-56596993D01*
X62793598Y-56596993D02*
X62793598Y-56825564D01*
X63307883Y-56082707D02*
X62107883Y-56082707D01*
X62107883Y-56082707D02*
X63307883Y-55396993D01*
X63307883Y-55396993D02*
X62107883Y-55396993D01*
X63307883Y-54825564D02*
X62107883Y-54825564D01*
X62107883Y-54825564D02*
X62107883Y-54539850D01*
X62107883Y-54539850D02*
X62165026Y-54368421D01*
X62165026Y-54368421D02*
X62279312Y-54254136D01*
X62279312Y-54254136D02*
X62393598Y-54196993D01*
X62393598Y-54196993D02*
X62622169Y-54139850D01*
X62622169Y-54139850D02*
X62793598Y-54139850D01*
X62793598Y-54139850D02*
X63022169Y-54196993D01*
X63022169Y-54196993D02*
X63136455Y-54254136D01*
X63136455Y-54254136D02*
X63250741Y-54368421D01*
X63250741Y-54368421D02*
X63307883Y-54539850D01*
X63307883Y-54539850D02*
X63307883Y-54825564D01*
X67114607Y-57339850D02*
X67171749Y-57168422D01*
X67171749Y-57168422D02*
X67171749Y-56882707D01*
X67171749Y-56882707D02*
X67114607Y-56768422D01*
X67114607Y-56768422D02*
X67057464Y-56711279D01*
X67057464Y-56711279D02*
X66943178Y-56654136D01*
X66943178Y-56654136D02*
X66828892Y-56654136D01*
X66828892Y-56654136D02*
X66714607Y-56711279D01*
X66714607Y-56711279D02*
X66657464Y-56768422D01*
X66657464Y-56768422D02*
X66600321Y-56882707D01*
X66600321Y-56882707D02*
X66543178Y-57111279D01*
X66543178Y-57111279D02*
X66486035Y-57225564D01*
X66486035Y-57225564D02*
X66428892Y-57282707D01*
X66428892Y-57282707D02*
X66314607Y-57339850D01*
X66314607Y-57339850D02*
X66200321Y-57339850D01*
X66200321Y-57339850D02*
X66086035Y-57282707D01*
X66086035Y-57282707D02*
X66028892Y-57225564D01*
X66028892Y-57225564D02*
X65971749Y-57111279D01*
X65971749Y-57111279D02*
X65971749Y-56825564D01*
X65971749Y-56825564D02*
X66028892Y-56654136D01*
X67057464Y-55454136D02*
X67114607Y-55511279D01*
X67114607Y-55511279D02*
X67171749Y-55682707D01*
X67171749Y-55682707D02*
X67171749Y-55796993D01*
X67171749Y-55796993D02*
X67114607Y-55968422D01*
X67114607Y-55968422D02*
X67000321Y-56082707D01*
X67000321Y-56082707D02*
X66886035Y-56139850D01*
X66886035Y-56139850D02*
X66657464Y-56196993D01*
X66657464Y-56196993D02*
X66486035Y-56196993D01*
X66486035Y-56196993D02*
X66257464Y-56139850D01*
X66257464Y-56139850D02*
X66143178Y-56082707D01*
X66143178Y-56082707D02*
X66028892Y-55968422D01*
X66028892Y-55968422D02*
X65971749Y-55796993D01*
X65971749Y-55796993D02*
X65971749Y-55682707D01*
X65971749Y-55682707D02*
X66028892Y-55511279D01*
X66028892Y-55511279D02*
X66086035Y-55454136D01*
X67171749Y-54368422D02*
X67171749Y-54939850D01*
X67171749Y-54939850D02*
X65971749Y-54939850D01*
X66086035Y-54025564D02*
X66028892Y-53968421D01*
X66028892Y-53968421D02*
X65971749Y-53854136D01*
X65971749Y-53854136D02*
X65971749Y-53568421D01*
X65971749Y-53568421D02*
X66028892Y-53454136D01*
X66028892Y-53454136D02*
X66086035Y-53396993D01*
X66086035Y-53396993D02*
X66200321Y-53339850D01*
X66200321Y-53339850D02*
X66314607Y-53339850D01*
X66314607Y-53339850D02*
X66486035Y-53396993D01*
X66486035Y-53396993D02*
X67171749Y-54082707D01*
X67171749Y-54082707D02*
X67171749Y-53339850D01*
X70978473Y-57339850D02*
X71035615Y-57168422D01*
X71035615Y-57168422D02*
X71035615Y-56882707D01*
X71035615Y-56882707D02*
X70978473Y-56768422D01*
X70978473Y-56768422D02*
X70921330Y-56711279D01*
X70921330Y-56711279D02*
X70807044Y-56654136D01*
X70807044Y-56654136D02*
X70692758Y-56654136D01*
X70692758Y-56654136D02*
X70578473Y-56711279D01*
X70578473Y-56711279D02*
X70521330Y-56768422D01*
X70521330Y-56768422D02*
X70464187Y-56882707D01*
X70464187Y-56882707D02*
X70407044Y-57111279D01*
X70407044Y-57111279D02*
X70349901Y-57225564D01*
X70349901Y-57225564D02*
X70292758Y-57282707D01*
X70292758Y-57282707D02*
X70178473Y-57339850D01*
X70178473Y-57339850D02*
X70064187Y-57339850D01*
X70064187Y-57339850D02*
X69949901Y-57282707D01*
X69949901Y-57282707D02*
X69892758Y-57225564D01*
X69892758Y-57225564D02*
X69835615Y-57111279D01*
X69835615Y-57111279D02*
X69835615Y-56825564D01*
X69835615Y-56825564D02*
X69892758Y-56654136D01*
X71035615Y-56139850D02*
X69835615Y-56139850D01*
X69835615Y-56139850D02*
X69835615Y-55854136D01*
X69835615Y-55854136D02*
X69892758Y-55682707D01*
X69892758Y-55682707D02*
X70007044Y-55568422D01*
X70007044Y-55568422D02*
X70121330Y-55511279D01*
X70121330Y-55511279D02*
X70349901Y-55454136D01*
X70349901Y-55454136D02*
X70521330Y-55454136D01*
X70521330Y-55454136D02*
X70749901Y-55511279D01*
X70749901Y-55511279D02*
X70864187Y-55568422D01*
X70864187Y-55568422D02*
X70978473Y-55682707D01*
X70978473Y-55682707D02*
X71035615Y-55854136D01*
X71035615Y-55854136D02*
X71035615Y-56139850D01*
X70692758Y-54996993D02*
X70692758Y-54425565D01*
X71035615Y-55111279D02*
X69835615Y-54711279D01*
X69835615Y-54711279D02*
X71035615Y-54311279D01*
X69949901Y-53968422D02*
X69892758Y-53911279D01*
X69892758Y-53911279D02*
X69835615Y-53796994D01*
X69835615Y-53796994D02*
X69835615Y-53511279D01*
X69835615Y-53511279D02*
X69892758Y-53396994D01*
X69892758Y-53396994D02*
X69949901Y-53339851D01*
X69949901Y-53339851D02*
X70064187Y-53282708D01*
X70064187Y-53282708D02*
X70178473Y-53282708D01*
X70178473Y-53282708D02*
X70349901Y-53339851D01*
X70349901Y-53339851D02*
X71035615Y-54025565D01*
X71035615Y-54025565D02*
X71035615Y-53282708D01*
X63128550Y-73817292D02*
X61928550Y-73817292D01*
X61928550Y-73817292D02*
X61928550Y-73360149D01*
X61928550Y-73360149D02*
X61985693Y-73245864D01*
X61985693Y-73245864D02*
X62042836Y-73188721D01*
X62042836Y-73188721D02*
X62157122Y-73131578D01*
X62157122Y-73131578D02*
X62328550Y-73131578D01*
X62328550Y-73131578D02*
X62442836Y-73188721D01*
X62442836Y-73188721D02*
X62499979Y-73245864D01*
X62499979Y-73245864D02*
X62557122Y-73360149D01*
X62557122Y-73360149D02*
X62557122Y-73817292D01*
X61928550Y-72731578D02*
X63128550Y-72445864D01*
X63128550Y-72445864D02*
X62271408Y-72217292D01*
X62271408Y-72217292D02*
X63128550Y-71988721D01*
X63128550Y-71988721D02*
X61928550Y-71703007D01*
X63128550Y-70560149D02*
X62557122Y-70960149D01*
X63128550Y-71245863D02*
X61928550Y-71245863D01*
X61928550Y-71245863D02*
X61928550Y-70788720D01*
X61928550Y-70788720D02*
X61985693Y-70674435D01*
X61985693Y-70674435D02*
X62042836Y-70617292D01*
X62042836Y-70617292D02*
X62157122Y-70560149D01*
X62157122Y-70560149D02*
X62328550Y-70560149D01*
X62328550Y-70560149D02*
X62442836Y-70617292D01*
X62442836Y-70617292D02*
X62499979Y-70674435D01*
X62499979Y-70674435D02*
X62557122Y-70788720D01*
X62557122Y-70788720D02*
X62557122Y-71245863D01*
X65849559Y-73074435D02*
X65792416Y-73188721D01*
X65792416Y-73188721D02*
X65792416Y-73360149D01*
X65792416Y-73360149D02*
X65849559Y-73531578D01*
X65849559Y-73531578D02*
X65963845Y-73645863D01*
X65963845Y-73645863D02*
X66078131Y-73703006D01*
X66078131Y-73703006D02*
X66306702Y-73760149D01*
X66306702Y-73760149D02*
X66478131Y-73760149D01*
X66478131Y-73760149D02*
X66706702Y-73703006D01*
X66706702Y-73703006D02*
X66820988Y-73645863D01*
X66820988Y-73645863D02*
X66935274Y-73531578D01*
X66935274Y-73531578D02*
X66992416Y-73360149D01*
X66992416Y-73360149D02*
X66992416Y-73245863D01*
X66992416Y-73245863D02*
X66935274Y-73074435D01*
X66935274Y-73074435D02*
X66878131Y-73017292D01*
X66878131Y-73017292D02*
X66478131Y-73017292D01*
X66478131Y-73017292D02*
X66478131Y-73245863D01*
X66992416Y-72503006D02*
X65792416Y-72503006D01*
X65792416Y-72503006D02*
X66992416Y-71817292D01*
X66992416Y-71817292D02*
X65792416Y-71817292D01*
X66992416Y-71245863D02*
X65792416Y-71245863D01*
X65792416Y-71245863D02*
X65792416Y-70960149D01*
X65792416Y-70960149D02*
X65849559Y-70788720D01*
X65849559Y-70788720D02*
X65963845Y-70674435D01*
X65963845Y-70674435D02*
X66078131Y-70617292D01*
X66078131Y-70617292D02*
X66306702Y-70560149D01*
X66306702Y-70560149D02*
X66478131Y-70560149D01*
X66478131Y-70560149D02*
X66706702Y-70617292D01*
X66706702Y-70617292D02*
X66820988Y-70674435D01*
X66820988Y-70674435D02*
X66935274Y-70788720D01*
X66935274Y-70788720D02*
X66992416Y-70960149D01*
X66992416Y-70960149D02*
X66992416Y-71245863D01*
X70799140Y-73017292D02*
X70856282Y-72845864D01*
X70856282Y-72845864D02*
X70856282Y-72560149D01*
X70856282Y-72560149D02*
X70799140Y-72445864D01*
X70799140Y-72445864D02*
X70741997Y-72388721D01*
X70741997Y-72388721D02*
X70627711Y-72331578D01*
X70627711Y-72331578D02*
X70513425Y-72331578D01*
X70513425Y-72331578D02*
X70399140Y-72388721D01*
X70399140Y-72388721D02*
X70341997Y-72445864D01*
X70341997Y-72445864D02*
X70284854Y-72560149D01*
X70284854Y-72560149D02*
X70227711Y-72788721D01*
X70227711Y-72788721D02*
X70170568Y-72903006D01*
X70170568Y-72903006D02*
X70113425Y-72960149D01*
X70113425Y-72960149D02*
X69999140Y-73017292D01*
X69999140Y-73017292D02*
X69884854Y-73017292D01*
X69884854Y-73017292D02*
X69770568Y-72960149D01*
X69770568Y-72960149D02*
X69713425Y-72903006D01*
X69713425Y-72903006D02*
X69656282Y-72788721D01*
X69656282Y-72788721D02*
X69656282Y-72503006D01*
X69656282Y-72503006D02*
X69713425Y-72331578D01*
X70856282Y-71817292D02*
X69656282Y-71817292D01*
X69713425Y-70617292D02*
X69656282Y-70731578D01*
X69656282Y-70731578D02*
X69656282Y-70903006D01*
X69656282Y-70903006D02*
X69713425Y-71074435D01*
X69713425Y-71074435D02*
X69827711Y-71188720D01*
X69827711Y-71188720D02*
X69941997Y-71245863D01*
X69941997Y-71245863D02*
X70170568Y-71303006D01*
X70170568Y-71303006D02*
X70341997Y-71303006D01*
X70341997Y-71303006D02*
X70570568Y-71245863D01*
X70570568Y-71245863D02*
X70684854Y-71188720D01*
X70684854Y-71188720D02*
X70799140Y-71074435D01*
X70799140Y-71074435D02*
X70856282Y-70903006D01*
X70856282Y-70903006D02*
X70856282Y-70788720D01*
X70856282Y-70788720D02*
X70799140Y-70617292D01*
X70799140Y-70617292D02*
X70741997Y-70560149D01*
X70741997Y-70560149D02*
X70341997Y-70560149D01*
X70341997Y-70560149D02*
X70341997Y-70788720D01*
X75643867Y-57454136D02*
X76843867Y-57054136D01*
X76843867Y-57054136D02*
X75643867Y-56654136D01*
X76729582Y-55568422D02*
X76786725Y-55625565D01*
X76786725Y-55625565D02*
X76843867Y-55796993D01*
X76843867Y-55796993D02*
X76843867Y-55911279D01*
X76843867Y-55911279D02*
X76786725Y-56082708D01*
X76786725Y-56082708D02*
X76672439Y-56196993D01*
X76672439Y-56196993D02*
X76558153Y-56254136D01*
X76558153Y-56254136D02*
X76329582Y-56311279D01*
X76329582Y-56311279D02*
X76158153Y-56311279D01*
X76158153Y-56311279D02*
X75929582Y-56254136D01*
X75929582Y-56254136D02*
X75815296Y-56196993D01*
X75815296Y-56196993D02*
X75701010Y-56082708D01*
X75701010Y-56082708D02*
X75643867Y-55911279D01*
X75643867Y-55911279D02*
X75643867Y-55796993D01*
X75643867Y-55796993D02*
X75701010Y-55625565D01*
X75701010Y-55625565D02*
X75758153Y-55568422D01*
X76729582Y-54368422D02*
X76786725Y-54425565D01*
X76786725Y-54425565D02*
X76843867Y-54596993D01*
X76843867Y-54596993D02*
X76843867Y-54711279D01*
X76843867Y-54711279D02*
X76786725Y-54882708D01*
X76786725Y-54882708D02*
X76672439Y-54996993D01*
X76672439Y-54996993D02*
X76558153Y-55054136D01*
X76558153Y-55054136D02*
X76329582Y-55111279D01*
X76329582Y-55111279D02*
X76158153Y-55111279D01*
X76158153Y-55111279D02*
X75929582Y-55054136D01*
X75929582Y-55054136D02*
X75815296Y-54996993D01*
X75815296Y-54996993D02*
X75701010Y-54882708D01*
X75701010Y-54882708D02*
X75643867Y-54711279D01*
X75643867Y-54711279D02*
X75643867Y-54596993D01*
X75643867Y-54596993D02*
X75701010Y-54425565D01*
X75701010Y-54425565D02*
X75758153Y-54368422D01*
X79564876Y-56654136D02*
X79507733Y-56768422D01*
X79507733Y-56768422D02*
X79507733Y-56939850D01*
X79507733Y-56939850D02*
X79564876Y-57111279D01*
X79564876Y-57111279D02*
X79679162Y-57225564D01*
X79679162Y-57225564D02*
X79793448Y-57282707D01*
X79793448Y-57282707D02*
X80022019Y-57339850D01*
X80022019Y-57339850D02*
X80193448Y-57339850D01*
X80193448Y-57339850D02*
X80422019Y-57282707D01*
X80422019Y-57282707D02*
X80536305Y-57225564D01*
X80536305Y-57225564D02*
X80650591Y-57111279D01*
X80650591Y-57111279D02*
X80707733Y-56939850D01*
X80707733Y-56939850D02*
X80707733Y-56825564D01*
X80707733Y-56825564D02*
X80650591Y-56654136D01*
X80650591Y-56654136D02*
X80593448Y-56596993D01*
X80593448Y-56596993D02*
X80193448Y-56596993D01*
X80193448Y-56596993D02*
X80193448Y-56825564D01*
X80707733Y-56082707D02*
X79507733Y-56082707D01*
X79507733Y-56082707D02*
X80707733Y-55396993D01*
X80707733Y-55396993D02*
X79507733Y-55396993D01*
X80707733Y-54825564D02*
X79507733Y-54825564D01*
X79507733Y-54825564D02*
X79507733Y-54539850D01*
X79507733Y-54539850D02*
X79564876Y-54368421D01*
X79564876Y-54368421D02*
X79679162Y-54254136D01*
X79679162Y-54254136D02*
X79793448Y-54196993D01*
X79793448Y-54196993D02*
X80022019Y-54139850D01*
X80022019Y-54139850D02*
X80193448Y-54139850D01*
X80193448Y-54139850D02*
X80422019Y-54196993D01*
X80422019Y-54196993D02*
X80536305Y-54254136D01*
X80536305Y-54254136D02*
X80650591Y-54368421D01*
X80650591Y-54368421D02*
X80707733Y-54539850D01*
X80707733Y-54539850D02*
X80707733Y-54825564D01*
X84514457Y-57339850D02*
X84571599Y-57168422D01*
X84571599Y-57168422D02*
X84571599Y-56882707D01*
X84571599Y-56882707D02*
X84514457Y-56768422D01*
X84514457Y-56768422D02*
X84457314Y-56711279D01*
X84457314Y-56711279D02*
X84343028Y-56654136D01*
X84343028Y-56654136D02*
X84228742Y-56654136D01*
X84228742Y-56654136D02*
X84114457Y-56711279D01*
X84114457Y-56711279D02*
X84057314Y-56768422D01*
X84057314Y-56768422D02*
X84000171Y-56882707D01*
X84000171Y-56882707D02*
X83943028Y-57111279D01*
X83943028Y-57111279D02*
X83885885Y-57225564D01*
X83885885Y-57225564D02*
X83828742Y-57282707D01*
X83828742Y-57282707D02*
X83714457Y-57339850D01*
X83714457Y-57339850D02*
X83600171Y-57339850D01*
X83600171Y-57339850D02*
X83485885Y-57282707D01*
X83485885Y-57282707D02*
X83428742Y-57225564D01*
X83428742Y-57225564D02*
X83371599Y-57111279D01*
X83371599Y-57111279D02*
X83371599Y-56825564D01*
X83371599Y-56825564D02*
X83428742Y-56654136D01*
X84457314Y-55454136D02*
X84514457Y-55511279D01*
X84514457Y-55511279D02*
X84571599Y-55682707D01*
X84571599Y-55682707D02*
X84571599Y-55796993D01*
X84571599Y-55796993D02*
X84514457Y-55968422D01*
X84514457Y-55968422D02*
X84400171Y-56082707D01*
X84400171Y-56082707D02*
X84285885Y-56139850D01*
X84285885Y-56139850D02*
X84057314Y-56196993D01*
X84057314Y-56196993D02*
X83885885Y-56196993D01*
X83885885Y-56196993D02*
X83657314Y-56139850D01*
X83657314Y-56139850D02*
X83543028Y-56082707D01*
X83543028Y-56082707D02*
X83428742Y-55968422D01*
X83428742Y-55968422D02*
X83371599Y-55796993D01*
X83371599Y-55796993D02*
X83371599Y-55682707D01*
X83371599Y-55682707D02*
X83428742Y-55511279D01*
X83428742Y-55511279D02*
X83485885Y-55454136D01*
X84571599Y-54368422D02*
X84571599Y-54939850D01*
X84571599Y-54939850D02*
X83371599Y-54939850D01*
X84571599Y-53339850D02*
X84571599Y-54025564D01*
X84571599Y-53682707D02*
X83371599Y-53682707D01*
X83371599Y-53682707D02*
X83543028Y-53796993D01*
X83543028Y-53796993D02*
X83657314Y-53911278D01*
X83657314Y-53911278D02*
X83714457Y-54025564D01*
X88378323Y-57339850D02*
X88435465Y-57168422D01*
X88435465Y-57168422D02*
X88435465Y-56882707D01*
X88435465Y-56882707D02*
X88378323Y-56768422D01*
X88378323Y-56768422D02*
X88321180Y-56711279D01*
X88321180Y-56711279D02*
X88206894Y-56654136D01*
X88206894Y-56654136D02*
X88092608Y-56654136D01*
X88092608Y-56654136D02*
X87978323Y-56711279D01*
X87978323Y-56711279D02*
X87921180Y-56768422D01*
X87921180Y-56768422D02*
X87864037Y-56882707D01*
X87864037Y-56882707D02*
X87806894Y-57111279D01*
X87806894Y-57111279D02*
X87749751Y-57225564D01*
X87749751Y-57225564D02*
X87692608Y-57282707D01*
X87692608Y-57282707D02*
X87578323Y-57339850D01*
X87578323Y-57339850D02*
X87464037Y-57339850D01*
X87464037Y-57339850D02*
X87349751Y-57282707D01*
X87349751Y-57282707D02*
X87292608Y-57225564D01*
X87292608Y-57225564D02*
X87235465Y-57111279D01*
X87235465Y-57111279D02*
X87235465Y-56825564D01*
X87235465Y-56825564D02*
X87292608Y-56654136D01*
X88435465Y-56139850D02*
X87235465Y-56139850D01*
X87235465Y-56139850D02*
X87235465Y-55854136D01*
X87235465Y-55854136D02*
X87292608Y-55682707D01*
X87292608Y-55682707D02*
X87406894Y-55568422D01*
X87406894Y-55568422D02*
X87521180Y-55511279D01*
X87521180Y-55511279D02*
X87749751Y-55454136D01*
X87749751Y-55454136D02*
X87921180Y-55454136D01*
X87921180Y-55454136D02*
X88149751Y-55511279D01*
X88149751Y-55511279D02*
X88264037Y-55568422D01*
X88264037Y-55568422D02*
X88378323Y-55682707D01*
X88378323Y-55682707D02*
X88435465Y-55854136D01*
X88435465Y-55854136D02*
X88435465Y-56139850D01*
X88092608Y-54996993D02*
X88092608Y-54425565D01*
X88435465Y-55111279D02*
X87235465Y-54711279D01*
X87235465Y-54711279D02*
X88435465Y-54311279D01*
X88435465Y-53282708D02*
X88435465Y-53968422D01*
X88435465Y-53625565D02*
X87235465Y-53625565D01*
X87235465Y-53625565D02*
X87406894Y-53739851D01*
X87406894Y-53739851D02*
X87521180Y-53854136D01*
X87521180Y-53854136D02*
X87578323Y-53968422D01*
X77023200Y-73817292D02*
X75823200Y-73817292D01*
X75823200Y-73817292D02*
X75823200Y-73360149D01*
X75823200Y-73360149D02*
X75880343Y-73245864D01*
X75880343Y-73245864D02*
X75937486Y-73188721D01*
X75937486Y-73188721D02*
X76051772Y-73131578D01*
X76051772Y-73131578D02*
X76223200Y-73131578D01*
X76223200Y-73131578D02*
X76337486Y-73188721D01*
X76337486Y-73188721D02*
X76394629Y-73245864D01*
X76394629Y-73245864D02*
X76451772Y-73360149D01*
X76451772Y-73360149D02*
X76451772Y-73817292D01*
X75823200Y-72731578D02*
X77023200Y-72445864D01*
X77023200Y-72445864D02*
X76166058Y-72217292D01*
X76166058Y-72217292D02*
X77023200Y-71988721D01*
X77023200Y-71988721D02*
X75823200Y-71703007D01*
X77023200Y-70560149D02*
X76451772Y-70960149D01*
X77023200Y-71245863D02*
X75823200Y-71245863D01*
X75823200Y-71245863D02*
X75823200Y-70788720D01*
X75823200Y-70788720D02*
X75880343Y-70674435D01*
X75880343Y-70674435D02*
X75937486Y-70617292D01*
X75937486Y-70617292D02*
X76051772Y-70560149D01*
X76051772Y-70560149D02*
X76223200Y-70560149D01*
X76223200Y-70560149D02*
X76337486Y-70617292D01*
X76337486Y-70617292D02*
X76394629Y-70674435D01*
X76394629Y-70674435D02*
X76451772Y-70788720D01*
X76451772Y-70788720D02*
X76451772Y-71245863D01*
X79744209Y-73074435D02*
X79687066Y-73188721D01*
X79687066Y-73188721D02*
X79687066Y-73360149D01*
X79687066Y-73360149D02*
X79744209Y-73531578D01*
X79744209Y-73531578D02*
X79858495Y-73645863D01*
X79858495Y-73645863D02*
X79972781Y-73703006D01*
X79972781Y-73703006D02*
X80201352Y-73760149D01*
X80201352Y-73760149D02*
X80372781Y-73760149D01*
X80372781Y-73760149D02*
X80601352Y-73703006D01*
X80601352Y-73703006D02*
X80715638Y-73645863D01*
X80715638Y-73645863D02*
X80829924Y-73531578D01*
X80829924Y-73531578D02*
X80887066Y-73360149D01*
X80887066Y-73360149D02*
X80887066Y-73245863D01*
X80887066Y-73245863D02*
X80829924Y-73074435D01*
X80829924Y-73074435D02*
X80772781Y-73017292D01*
X80772781Y-73017292D02*
X80372781Y-73017292D01*
X80372781Y-73017292D02*
X80372781Y-73245863D01*
X80887066Y-72503006D02*
X79687066Y-72503006D01*
X79687066Y-72503006D02*
X80887066Y-71817292D01*
X80887066Y-71817292D02*
X79687066Y-71817292D01*
X80887066Y-71245863D02*
X79687066Y-71245863D01*
X79687066Y-71245863D02*
X79687066Y-70960149D01*
X79687066Y-70960149D02*
X79744209Y-70788720D01*
X79744209Y-70788720D02*
X79858495Y-70674435D01*
X79858495Y-70674435D02*
X79972781Y-70617292D01*
X79972781Y-70617292D02*
X80201352Y-70560149D01*
X80201352Y-70560149D02*
X80372781Y-70560149D01*
X80372781Y-70560149D02*
X80601352Y-70617292D01*
X80601352Y-70617292D02*
X80715638Y-70674435D01*
X80715638Y-70674435D02*
X80829924Y-70788720D01*
X80829924Y-70788720D02*
X80887066Y-70960149D01*
X80887066Y-70960149D02*
X80887066Y-71245863D01*
X84693790Y-73017292D02*
X84750932Y-72845864D01*
X84750932Y-72845864D02*
X84750932Y-72560149D01*
X84750932Y-72560149D02*
X84693790Y-72445864D01*
X84693790Y-72445864D02*
X84636647Y-72388721D01*
X84636647Y-72388721D02*
X84522361Y-72331578D01*
X84522361Y-72331578D02*
X84408075Y-72331578D01*
X84408075Y-72331578D02*
X84293790Y-72388721D01*
X84293790Y-72388721D02*
X84236647Y-72445864D01*
X84236647Y-72445864D02*
X84179504Y-72560149D01*
X84179504Y-72560149D02*
X84122361Y-72788721D01*
X84122361Y-72788721D02*
X84065218Y-72903006D01*
X84065218Y-72903006D02*
X84008075Y-72960149D01*
X84008075Y-72960149D02*
X83893790Y-73017292D01*
X83893790Y-73017292D02*
X83779504Y-73017292D01*
X83779504Y-73017292D02*
X83665218Y-72960149D01*
X83665218Y-72960149D02*
X83608075Y-72903006D01*
X83608075Y-72903006D02*
X83550932Y-72788721D01*
X83550932Y-72788721D02*
X83550932Y-72503006D01*
X83550932Y-72503006D02*
X83608075Y-72331578D01*
X84750932Y-71817292D02*
X83550932Y-71817292D01*
X83608075Y-70617292D02*
X83550932Y-70731578D01*
X83550932Y-70731578D02*
X83550932Y-70903006D01*
X83550932Y-70903006D02*
X83608075Y-71074435D01*
X83608075Y-71074435D02*
X83722361Y-71188720D01*
X83722361Y-71188720D02*
X83836647Y-71245863D01*
X83836647Y-71245863D02*
X84065218Y-71303006D01*
X84065218Y-71303006D02*
X84236647Y-71303006D01*
X84236647Y-71303006D02*
X84465218Y-71245863D01*
X84465218Y-71245863D02*
X84579504Y-71188720D01*
X84579504Y-71188720D02*
X84693790Y-71074435D01*
X84693790Y-71074435D02*
X84750932Y-70903006D01*
X84750932Y-70903006D02*
X84750932Y-70788720D01*
X84750932Y-70788720D02*
X84693790Y-70617292D01*
X84693790Y-70617292D02*
X84636647Y-70560149D01*
X84636647Y-70560149D02*
X84236647Y-70560149D01*
X84236647Y-70560149D02*
X84236647Y-70788720D01*
D11*
X87154819Y-65758333D02*
X87869104Y-65758333D01*
X87869104Y-65758333D02*
X88011961Y-65805952D01*
X88011961Y-65805952D02*
X88107200Y-65901190D01*
X88107200Y-65901190D02*
X88154819Y-66044047D01*
X88154819Y-66044047D02*
X88154819Y-66139285D01*
X87154819Y-64805952D02*
X87154819Y-65282142D01*
X87154819Y-65282142D02*
X87631009Y-65329761D01*
X87631009Y-65329761D02*
X87583390Y-65282142D01*
X87583390Y-65282142D02*
X87535771Y-65186904D01*
X87535771Y-65186904D02*
X87535771Y-64948809D01*
X87535771Y-64948809D02*
X87583390Y-64853571D01*
X87583390Y-64853571D02*
X87631009Y-64805952D01*
X87631009Y-64805952D02*
X87726247Y-64758333D01*
X87726247Y-64758333D02*
X87964342Y-64758333D01*
X87964342Y-64758333D02*
X88059580Y-64805952D01*
X88059580Y-64805952D02*
X88107200Y-64853571D01*
X88107200Y-64853571D02*
X88154819Y-64948809D01*
X88154819Y-64948809D02*
X88154819Y-65186904D01*
X88154819Y-65186904D02*
X88107200Y-65282142D01*
X88107200Y-65282142D02*
X88059580Y-65329761D01*
X73291666Y-68829819D02*
X73291666Y-69544104D01*
X73291666Y-69544104D02*
X73244047Y-69686961D01*
X73244047Y-69686961D02*
X73148809Y-69782200D01*
X73148809Y-69782200D02*
X73005952Y-69829819D01*
X73005952Y-69829819D02*
X72910714Y-69829819D01*
X73672619Y-68829819D02*
X74339285Y-68829819D01*
X74339285Y-68829819D02*
X73910714Y-69829819D01*
X55966666Y-51904819D02*
X55966666Y-52619104D01*
X55966666Y-52619104D02*
X55919047Y-52761961D01*
X55919047Y-52761961D02*
X55823809Y-52857200D01*
X55823809Y-52857200D02*
X55680952Y-52904819D01*
X55680952Y-52904819D02*
X55585714Y-52904819D01*
X56871428Y-52238152D02*
X56871428Y-52904819D01*
X56633333Y-51857200D02*
X56395238Y-52571485D01*
X56395238Y-52571485D02*
X57014285Y-52571485D01*
X59341666Y-68929819D02*
X59341666Y-69644104D01*
X59341666Y-69644104D02*
X59294047Y-69786961D01*
X59294047Y-69786961D02*
X59198809Y-69882200D01*
X59198809Y-69882200D02*
X59055952Y-69929819D01*
X59055952Y-69929819D02*
X58960714Y-69929819D01*
X60246428Y-68929819D02*
X60055952Y-68929819D01*
X60055952Y-68929819D02*
X59960714Y-68977438D01*
X59960714Y-68977438D02*
X59913095Y-69025057D01*
X59913095Y-69025057D02*
X59817857Y-69167914D01*
X59817857Y-69167914D02*
X59770238Y-69358390D01*
X59770238Y-69358390D02*
X59770238Y-69739342D01*
X59770238Y-69739342D02*
X59817857Y-69834580D01*
X59817857Y-69834580D02*
X59865476Y-69882200D01*
X59865476Y-69882200D02*
X59960714Y-69929819D01*
X59960714Y-69929819D02*
X60151190Y-69929819D01*
X60151190Y-69929819D02*
X60246428Y-69882200D01*
X60246428Y-69882200D02*
X60294047Y-69834580D01*
X60294047Y-69834580D02*
X60341666Y-69739342D01*
X60341666Y-69739342D02*
X60341666Y-69501247D01*
X60341666Y-69501247D02*
X60294047Y-69406009D01*
X60294047Y-69406009D02*
X60246428Y-69358390D01*
X60246428Y-69358390D02*
X60151190Y-69310771D01*
X60151190Y-69310771D02*
X59960714Y-69310771D01*
X59960714Y-69310771D02*
X59865476Y-69358390D01*
X59865476Y-69358390D02*
X59817857Y-69406009D01*
X59817857Y-69406009D02*
X59770238Y-69501247D01*
X90391666Y-51479819D02*
X90391666Y-52194104D01*
X90391666Y-52194104D02*
X90344047Y-52336961D01*
X90344047Y-52336961D02*
X90248809Y-52432200D01*
X90248809Y-52432200D02*
X90105952Y-52479819D01*
X90105952Y-52479819D02*
X90010714Y-52479819D01*
X91391666Y-52479819D02*
X90820238Y-52479819D01*
X91105952Y-52479819D02*
X91105952Y-51479819D01*
X91105952Y-51479819D02*
X91010714Y-51622676D01*
X91010714Y-51622676D02*
X90915476Y-51717914D01*
X90915476Y-51717914D02*
X90820238Y-51765533D01*
X73416666Y-51904819D02*
X73416666Y-52619104D01*
X73416666Y-52619104D02*
X73369047Y-52761961D01*
X73369047Y-52761961D02*
X73273809Y-52857200D01*
X73273809Y-52857200D02*
X73130952Y-52904819D01*
X73130952Y-52904819D02*
X73035714Y-52904819D01*
X73845238Y-52000057D02*
X73892857Y-51952438D01*
X73892857Y-51952438D02*
X73988095Y-51904819D01*
X73988095Y-51904819D02*
X74226190Y-51904819D01*
X74226190Y-51904819D02*
X74321428Y-51952438D01*
X74321428Y-51952438D02*
X74369047Y-52000057D01*
X74369047Y-52000057D02*
X74416666Y-52095295D01*
X74416666Y-52095295D02*
X74416666Y-52190533D01*
X74416666Y-52190533D02*
X74369047Y-52333390D01*
X74369047Y-52333390D02*
X73797619Y-52904819D01*
X73797619Y-52904819D02*
X74416666Y-52904819D01*
X90241666Y-59504819D02*
X90241666Y-60219104D01*
X90241666Y-60219104D02*
X90194047Y-60361961D01*
X90194047Y-60361961D02*
X90098809Y-60457200D01*
X90098809Y-60457200D02*
X89955952Y-60504819D01*
X89955952Y-60504819D02*
X89860714Y-60504819D01*
X90622619Y-59504819D02*
X91241666Y-59504819D01*
X91241666Y-59504819D02*
X90908333Y-59885771D01*
X90908333Y-59885771D02*
X91051190Y-59885771D01*
X91051190Y-59885771D02*
X91146428Y-59933390D01*
X91146428Y-59933390D02*
X91194047Y-59981009D01*
X91194047Y-59981009D02*
X91241666Y-60076247D01*
X91241666Y-60076247D02*
X91241666Y-60314342D01*
X91241666Y-60314342D02*
X91194047Y-60409580D01*
X91194047Y-60409580D02*
X91146428Y-60457200D01*
X91146428Y-60457200D02*
X91051190Y-60504819D01*
X91051190Y-60504819D02*
X90765476Y-60504819D01*
X90765476Y-60504819D02*
X90670238Y-60457200D01*
X90670238Y-60457200D02*
X90622619Y-60409580D01*
%TO.C,J5*%
D12*
X88790000Y-61365000D02*
X88790000Y-62285000D01*
X88790000Y-62285000D02*
X90390000Y-62285000D01*
X88790000Y-68565000D02*
X88790000Y-69485000D01*
X88790000Y-69485000D02*
X96610000Y-69485000D01*
X90390000Y-61365000D02*
X90390000Y-62285000D01*
X90390000Y-62285000D02*
X90390000Y-62565000D01*
X90390000Y-68285000D02*
X89175000Y-68285000D01*
X90390000Y-68285000D02*
X90390000Y-68565000D01*
X90390000Y-68565000D02*
X88790000Y-68565000D01*
X90390000Y-69485000D02*
X90390000Y-68565000D01*
X92250000Y-63925000D02*
X96610000Y-63925000D01*
X92250000Y-66925000D02*
X92250000Y-63925000D01*
X94350000Y-67725000D02*
X96610000Y-67725000D01*
X94350000Y-68225000D02*
X96610000Y-68225000D01*
X96610000Y-61365000D02*
X88790000Y-61365000D01*
X96610000Y-66925000D02*
X92250000Y-66925000D01*
X96610000Y-69485000D02*
X96610000Y-61365000D01*
X92750000Y-62125000D02*
X94350000Y-62125000D01*
X94350000Y-63125000D01*
X92750000Y-63125000D01*
X92750000Y-62125000D01*
X92750000Y-67725000D02*
X94350000Y-67725000D01*
X94350000Y-68725000D01*
X92750000Y-68725000D01*
X92750000Y-67725000D01*
%TO.C,J7*%
D13*
X74849024Y-58323000D02*
X74849024Y-69930800D01*
X74849024Y-69930800D02*
X85745624Y-69930800D01*
X85745624Y-58323000D02*
X74849024Y-58323000D01*
X85745624Y-69930800D02*
X85745624Y-58323000D01*
D14*
X77103323Y-65495000D02*
G75*
G02*
X76341323Y-65495000I-381000J0D01*
G01*
X76341323Y-65495000D02*
G75*
G02*
X77103323Y-65495000I381000J0D01*
G01*
%TO.C,J4*%
D13*
X57449174Y-41423000D02*
X57449174Y-53030800D01*
X57449174Y-53030800D02*
X71850974Y-53030800D01*
X71850974Y-41423000D02*
X57449174Y-41423000D01*
X71850974Y-53030800D02*
X71850974Y-41423000D01*
D14*
X59680998Y-48595000D02*
G75*
G02*
X58918998Y-48595000I-381000J0D01*
G01*
X58918998Y-48595000D02*
G75*
G02*
X59680998Y-48595000I381000J0D01*
G01*
%TO.C,J6*%
D13*
X60954374Y-58323000D02*
X60954374Y-69930800D01*
X60954374Y-69930800D02*
X71850974Y-69930800D01*
X71850974Y-58323000D02*
X60954374Y-58323000D01*
X71850974Y-69930800D02*
X71850974Y-58323000D01*
D14*
X63208673Y-65495000D02*
G75*
G02*
X62446673Y-65495000I-381000J0D01*
G01*
X62446673Y-65495000D02*
G75*
G02*
X63208673Y-65495000I381000J0D01*
G01*
%TO.C,J1*%
D12*
X91940000Y-45840000D02*
X91940000Y-46890000D01*
X91940000Y-51010000D02*
X90950000Y-51010000D01*
X91940000Y-52060000D02*
X91940000Y-51010000D01*
X94440000Y-45840000D02*
X91940000Y-45840000D01*
X94440000Y-52060000D02*
X91940000Y-52060000D01*
X96410000Y-50890000D02*
X96410000Y-47010000D01*
%TO.C,J2*%
D13*
X74849024Y-41423000D02*
X74849024Y-53030800D01*
X74849024Y-53030800D02*
X89250824Y-53030800D01*
X89250824Y-41423000D02*
X74849024Y-41423000D01*
X89250824Y-53030800D02*
X89250824Y-41423000D01*
D14*
X77074971Y-48601926D02*
G75*
G02*
X76312971Y-48601926I-381000J0D01*
G01*
X76312971Y-48601926D02*
G75*
G02*
X77074971Y-48601926I381000J0D01*
G01*
%TO.C,J3*%
D12*
X91940000Y-53790000D02*
X91940000Y-54840000D01*
X91940000Y-58960000D02*
X90950000Y-58960000D01*
X91940000Y-60010000D02*
X91940000Y-58960000D01*
X94440000Y-53790000D02*
X91940000Y-53790000D01*
X94440000Y-60010000D02*
X91940000Y-60010000D01*
X96410000Y-58840000D02*
X96410000Y-54960000D01*
%TD*%
M02*
