%TF.GenerationSoftware,KiCad,Pcbnew,10.0.3-10.0.3~ubuntu24.04.1*%
%TF.CreationDate,2026-05-28T09:56:07-06:00*%
%TF.ProjectId,SensorBoard_v1.5,53656e73-6f72-4426-9f61-72645f76312e,rev?*%
%TF.SameCoordinates,Original*%
%TF.FileFunction,Copper,L2,Bot*%
%TF.FilePolarity,Positive*%
%FSLAX46Y46*%
G04 Gerber Fmt 4.6, Leading zero omitted, Abs format (unit mm)*
G04 Created by KiCad (PCBNEW 10.0.3-10.0.3~ubuntu24.04.1) date 2026-05-28 09:56:07*
%MOMM*%
%LPD*%
G01*
G04 APERTURE LIST*
G04 Aperture macros list*
%AMRoundRect*
0 Rectangle with rounded corners*
0 $1 Rounding radius*
0 $2 $3 $4 $5 $6 $7 $8 $9 X,Y pos of 4 corners*
0 Add a 4 corners polygon primitive as box body*
4,1,4,$2,$3,$4,$5,$6,$7,$8,$9,$2,$3,0*
0 Add four circle primitives for the rounded corners*
1,1,$1+$1,$2,$3*
1,1,$1+$1,$4,$5*
1,1,$1+$1,$6,$7*
1,1,$1+$1,$8,$9*
0 Add four rect primitives between the rounded corners*
20,1,$1+$1,$2,$3,$4,$5,0*
20,1,$1+$1,$4,$5,$6,$7,0*
20,1,$1+$1,$6,$7,$8,$9,0*
20,1,$1+$1,$8,$9,$2,$3,0*%
G04 Aperture macros list end*
%TA.AperFunction,ComponentPad*%
%ADD10RoundRect,0.250000X0.625000X-0.350000X0.625000X0.350000X-0.625000X0.350000X-0.625000X-0.350000X0*%
%TD*%
%TA.AperFunction,ComponentPad*%
%ADD11O,1.750000X1.200000*%
%TD*%
%TA.AperFunction,ComponentPad*%
%ADD12C,1.701800*%
%TD*%
G04 APERTURE END LIST*
D10*
%TO.P,J5,1,Pin_1*%
%TO.N,Net-(J5-Pin_1)*%
X90250000Y-67425000D03*
D11*
%TO.P,J5,2,Pin_2*%
%TO.N,Net-(J5-Pin_2)*%
X90250000Y-65425000D03*
%TO.P,J5,3,Pin_3*%
%TO.N,GND*%
X90250000Y-63425000D03*
%TD*%
D12*
%TO.P,J7,1,Pin_1*%
%TO.N,Net-(J5-Pin_2)*%
X76722323Y-67400000D03*
%TO.P,J7,2,Pin_2*%
%TO.N,GND*%
X80222323Y-67400000D03*
%TO.P,J7,3,Pin_3*%
%TO.N,Net-(J5-Pin_1)*%
X83722324Y-67400000D03*
%TD*%
%TO.P,J4,1,Pin_1*%
%TO.N,Net-(J3-Pin_2)*%
X59299999Y-50500000D03*
%TO.P,J4,2,Pin_2*%
%TO.N,GND*%
X62799999Y-50500000D03*
%TO.P,J4,3,Pin_3*%
%TO.N,Net-(J3-Pin_4)*%
X66300000Y-50500000D03*
%TO.P,J4,4,Pin_4*%
%TO.N,Net-(J3-Pin_3)*%
X69800000Y-50500000D03*
%TD*%
%TO.P,J6,1,Pin_1*%
%TO.N,Net-(J5-Pin_2)*%
X62827673Y-67400000D03*
%TO.P,J6,2,Pin_2*%
%TO.N,GND*%
X66327673Y-67400000D03*
%TO.P,J6,3,Pin_3*%
%TO.N,Net-(J5-Pin_1)*%
X69827674Y-67400000D03*
%TD*%
%TO.P,J2,1,Pin_1*%
%TO.N,Net-(J1-Pin_2)*%
X76699849Y-50500000D03*
%TO.P,J2,2,Pin_2*%
%TO.N,GND*%
X80199849Y-50500000D03*
%TO.P,J2,3,Pin_3*%
%TO.N,Net-(J1-Pin_4)*%
X83699850Y-50500000D03*
%TO.P,J2,4,Pin_4*%
%TO.N,Net-(J1-Pin_3)*%
X87199850Y-50500000D03*
%TD*%
%TA.AperFunction,Conductor*%
%TO.N,GND*%
G36*
X94504043Y-40500765D02*
G01*
X94752895Y-40517075D01*
X94768953Y-40519190D01*
X94976105Y-40560395D01*
X95009535Y-40567045D01*
X95025202Y-40571243D01*
X95194947Y-40628863D01*
X95257481Y-40650091D01*
X95272458Y-40656294D01*
X95481799Y-40759529D01*
X95492460Y-40764787D01*
X95506506Y-40772897D01*
X95710460Y-40909174D01*
X95723329Y-40919048D01*
X95907749Y-41080781D01*
X95919218Y-41092250D01*
X96080951Y-41276670D01*
X96090825Y-41289539D01*
X96227102Y-41493493D01*
X96235212Y-41507539D01*
X96343702Y-41727534D01*
X96349909Y-41742520D01*
X96428756Y-41974797D01*
X96432954Y-41990464D01*
X96480807Y-42231035D01*
X96482925Y-42247116D01*
X96499235Y-42495956D01*
X96499500Y-42504066D01*
X96499500Y-72495933D01*
X96499235Y-72504043D01*
X96482925Y-72752883D01*
X96480807Y-72768964D01*
X96432954Y-73009535D01*
X96428756Y-73025202D01*
X96349909Y-73257479D01*
X96343702Y-73272465D01*
X96235212Y-73492460D01*
X96227102Y-73506506D01*
X96090825Y-73710460D01*
X96080951Y-73723329D01*
X95919218Y-73907749D01*
X95907749Y-73919218D01*
X95723329Y-74080951D01*
X95710460Y-74090825D01*
X95506506Y-74227102D01*
X95492460Y-74235212D01*
X95272465Y-74343702D01*
X95257479Y-74349909D01*
X95025202Y-74428756D01*
X95009535Y-74432954D01*
X94768964Y-74480807D01*
X94752883Y-74482925D01*
X94504043Y-74499235D01*
X94495933Y-74499500D01*
X54471834Y-74499500D01*
X54463724Y-74499235D01*
X54214883Y-74482925D01*
X54198802Y-74480807D01*
X53958231Y-74432954D01*
X53942564Y-74428756D01*
X53710287Y-74349909D01*
X53695301Y-74343702D01*
X53475306Y-74235212D01*
X53461260Y-74227102D01*
X53257306Y-74090825D01*
X53244437Y-74080951D01*
X53060017Y-73919218D01*
X53048548Y-73907749D01*
X52969179Y-73817246D01*
X52886812Y-73723325D01*
X52876941Y-73710460D01*
X52740664Y-73506506D01*
X52732554Y-73492460D01*
X52626622Y-73277652D01*
X52624061Y-73272458D01*
X52617857Y-73257479D01*
X52539010Y-73025202D01*
X52534812Y-73009535D01*
X52526953Y-72970026D01*
X52486957Y-72768953D01*
X52484842Y-72752895D01*
X52468532Y-72504043D01*
X52468267Y-72495933D01*
X52468267Y-72393713D01*
X53117267Y-72393713D01*
X53117267Y-72606286D01*
X53143032Y-72768964D01*
X53150521Y-72816243D01*
X53200488Y-72970026D01*
X53216211Y-73018414D01*
X53312718Y-73207820D01*
X53437657Y-73379786D01*
X53587980Y-73530109D01*
X53759946Y-73655048D01*
X53759948Y-73655049D01*
X53759951Y-73655051D01*
X53949355Y-73751557D01*
X54151524Y-73817246D01*
X54361480Y-73850500D01*
X54361481Y-73850500D01*
X54574053Y-73850500D01*
X54574054Y-73850500D01*
X54784010Y-73817246D01*
X54986179Y-73751557D01*
X55175583Y-73655051D01*
X55197556Y-73639086D01*
X55347553Y-73530109D01*
X55347555Y-73530106D01*
X55347559Y-73530104D01*
X55497871Y-73379792D01*
X55497873Y-73379788D01*
X55497876Y-73379786D01*
X55622815Y-73207820D01*
X55622814Y-73207820D01*
X55622818Y-73207816D01*
X55719324Y-73018412D01*
X55785013Y-72816243D01*
X55818267Y-72606287D01*
X55818267Y-72393713D01*
X93149500Y-72393713D01*
X93149500Y-72606286D01*
X93175265Y-72768964D01*
X93182754Y-72816243D01*
X93232721Y-72970026D01*
X93248444Y-73018414D01*
X93344951Y-73207820D01*
X93469890Y-73379786D01*
X93620213Y-73530109D01*
X93792179Y-73655048D01*
X93792181Y-73655049D01*
X93792184Y-73655051D01*
X93981588Y-73751557D01*
X94183757Y-73817246D01*
X94393713Y-73850500D01*
X94393714Y-73850500D01*
X94606286Y-73850500D01*
X94606287Y-73850500D01*
X94816243Y-73817246D01*
X95018412Y-73751557D01*
X95207816Y-73655051D01*
X95229789Y-73639086D01*
X95379786Y-73530109D01*
X95379788Y-73530106D01*
X95379792Y-73530104D01*
X95530104Y-73379792D01*
X95530106Y-73379788D01*
X95530109Y-73379786D01*
X95655048Y-73207820D01*
X95655047Y-73207820D01*
X95655051Y-73207816D01*
X95751557Y-73018412D01*
X95817246Y-72816243D01*
X95850500Y-72606287D01*
X95850500Y-72393713D01*
X95817246Y-72183757D01*
X95751557Y-71981588D01*
X95655051Y-71792184D01*
X95655049Y-71792181D01*
X95655048Y-71792179D01*
X95530109Y-71620213D01*
X95379786Y-71469890D01*
X95207820Y-71344951D01*
X95018414Y-71248444D01*
X95018413Y-71248443D01*
X95018412Y-71248443D01*
X94816243Y-71182754D01*
X94816241Y-71182753D01*
X94816240Y-71182753D01*
X94654957Y-71157208D01*
X94606287Y-71149500D01*
X94393713Y-71149500D01*
X94345042Y-71157208D01*
X94183760Y-71182753D01*
X93981585Y-71248444D01*
X93792179Y-71344951D01*
X93620213Y-71469890D01*
X93469890Y-71620213D01*
X93344951Y-71792179D01*
X93248444Y-71981585D01*
X93182753Y-72183760D01*
X93149500Y-72393713D01*
X55818267Y-72393713D01*
X55785013Y-72183757D01*
X55719324Y-71981588D01*
X55622818Y-71792184D01*
X55622816Y-71792181D01*
X55622815Y-71792179D01*
X55497876Y-71620213D01*
X55347553Y-71469890D01*
X55175587Y-71344951D01*
X54986181Y-71248444D01*
X54986180Y-71248443D01*
X54986179Y-71248443D01*
X54784010Y-71182754D01*
X54784008Y-71182753D01*
X54784007Y-71182753D01*
X54622724Y-71157208D01*
X54574054Y-71149500D01*
X54361480Y-71149500D01*
X54312809Y-71157208D01*
X54151527Y-71182753D01*
X53949352Y-71248444D01*
X53759946Y-71344951D01*
X53587980Y-71469890D01*
X53437657Y-71620213D01*
X53312718Y-71792179D01*
X53216211Y-71981585D01*
X53150520Y-72183760D01*
X53117267Y-72393713D01*
X52468267Y-72393713D01*
X52468267Y-67293642D01*
X61476273Y-67293642D01*
X61476273Y-67506357D01*
X61509549Y-67716455D01*
X61575279Y-67918755D01*
X61575280Y-67918758D01*
X61664742Y-68094334D01*
X61671852Y-68108288D01*
X61796883Y-68280378D01*
X61947295Y-68430790D01*
X62119385Y-68555821D01*
X62212343Y-68603185D01*
X62308914Y-68652392D01*
X62308917Y-68652393D01*
X62410067Y-68685258D01*
X62511219Y-68718124D01*
X62721315Y-68751400D01*
X62721316Y-68751400D01*
X62934030Y-68751400D01*
X62934031Y-68751400D01*
X63144127Y-68718124D01*
X63346431Y-68652392D01*
X63535961Y-68555821D01*
X63708051Y-68430790D01*
X63858463Y-68280378D01*
X63983494Y-68108288D01*
X64080065Y-67918758D01*
X64145797Y-67716454D01*
X64179073Y-67506358D01*
X64179073Y-67293682D01*
X64976773Y-67293682D01*
X64976773Y-67506317D01*
X65010037Y-67716337D01*
X65075743Y-67918563D01*
X65075744Y-67918566D01*
X65172282Y-68108029D01*
X65211756Y-68162361D01*
X65211758Y-68162361D01*
X65765590Y-67608528D01*
X65771450Y-67630395D01*
X65850034Y-67766505D01*
X65961168Y-67877639D01*
X66097278Y-67956223D01*
X66119143Y-67962081D01*
X65565309Y-68515914D01*
X65565310Y-68515915D01*
X65619643Y-68555390D01*
X65809106Y-68651928D01*
X65809109Y-68651929D01*
X66011335Y-68717635D01*
X66221356Y-68750900D01*
X66433990Y-68750900D01*
X66644010Y-68717635D01*
X66846236Y-68651929D01*
X66846239Y-68651928D01*
X67035691Y-68555396D01*
X67035704Y-68555388D01*
X67090034Y-68515915D01*
X67090035Y-68515914D01*
X66536202Y-67962081D01*
X66558068Y-67956223D01*
X66694178Y-67877639D01*
X66805312Y-67766505D01*
X66883896Y-67630395D01*
X66889754Y-67608529D01*
X67443587Y-68162362D01*
X67443588Y-68162361D01*
X67483061Y-68108031D01*
X67483069Y-68108018D01*
X67579601Y-67918566D01*
X67579602Y-67918563D01*
X67645308Y-67716337D01*
X67678573Y-67506317D01*
X67678573Y-67293682D01*
X67678567Y-67293642D01*
X68476274Y-67293642D01*
X68476274Y-67506357D01*
X68509550Y-67716455D01*
X68575280Y-67918755D01*
X68575281Y-67918758D01*
X68664743Y-68094334D01*
X68671853Y-68108288D01*
X68796884Y-68280378D01*
X68947296Y-68430790D01*
X69119386Y-68555821D01*
X69212344Y-68603185D01*
X69308915Y-68652392D01*
X69308918Y-68652393D01*
X69410068Y-68685258D01*
X69511220Y-68718124D01*
X69721316Y-68751400D01*
X69721317Y-68751400D01*
X69934031Y-68751400D01*
X69934032Y-68751400D01*
X70144128Y-68718124D01*
X70346432Y-68652392D01*
X70535962Y-68555821D01*
X70708052Y-68430790D01*
X70858464Y-68280378D01*
X70983495Y-68108288D01*
X71080066Y-67918758D01*
X71145798Y-67716454D01*
X71179074Y-67506358D01*
X71179074Y-67293642D01*
X75370923Y-67293642D01*
X75370923Y-67506357D01*
X75404199Y-67716455D01*
X75469929Y-67918755D01*
X75469930Y-67918758D01*
X75559392Y-68094334D01*
X75566502Y-68108288D01*
X75691533Y-68280378D01*
X75841945Y-68430790D01*
X76014035Y-68555821D01*
X76106993Y-68603185D01*
X76203564Y-68652392D01*
X76203567Y-68652393D01*
X76304717Y-68685258D01*
X76405869Y-68718124D01*
X76615965Y-68751400D01*
X76615966Y-68751400D01*
X76828680Y-68751400D01*
X76828681Y-68751400D01*
X77038777Y-68718124D01*
X77241081Y-68652392D01*
X77430611Y-68555821D01*
X77602701Y-68430790D01*
X77753113Y-68280378D01*
X77878144Y-68108288D01*
X77974715Y-67918758D01*
X78040447Y-67716454D01*
X78073723Y-67506358D01*
X78073723Y-67293682D01*
X78871423Y-67293682D01*
X78871423Y-67506317D01*
X78904687Y-67716337D01*
X78970393Y-67918563D01*
X78970394Y-67918566D01*
X79066932Y-68108029D01*
X79106406Y-68162361D01*
X79106408Y-68162361D01*
X79660241Y-67608528D01*
X79666100Y-67630395D01*
X79744684Y-67766505D01*
X79855818Y-67877639D01*
X79991928Y-67956223D01*
X80013793Y-67962081D01*
X79459959Y-68515914D01*
X79459960Y-68515915D01*
X79514293Y-68555390D01*
X79703756Y-68651928D01*
X79703759Y-68651929D01*
X79905985Y-68717635D01*
X80116006Y-68750900D01*
X80328640Y-68750900D01*
X80538660Y-68717635D01*
X80740886Y-68651929D01*
X80740889Y-68651928D01*
X80930341Y-68555396D01*
X80930354Y-68555388D01*
X80984684Y-68515915D01*
X80984685Y-68515914D01*
X80430852Y-67962081D01*
X80452718Y-67956223D01*
X80588828Y-67877639D01*
X80699962Y-67766505D01*
X80778546Y-67630395D01*
X80784404Y-67608529D01*
X81338237Y-68162362D01*
X81338238Y-68162361D01*
X81377711Y-68108031D01*
X81377719Y-68108018D01*
X81474251Y-67918566D01*
X81474252Y-67918563D01*
X81539958Y-67716337D01*
X81573223Y-67506317D01*
X81573223Y-67293682D01*
X81573217Y-67293642D01*
X82370924Y-67293642D01*
X82370924Y-67506357D01*
X82404200Y-67716455D01*
X82469930Y-67918755D01*
X82469931Y-67918758D01*
X82559393Y-68094334D01*
X82566503Y-68108288D01*
X82691534Y-68280378D01*
X82841946Y-68430790D01*
X83014036Y-68555821D01*
X83106994Y-68603185D01*
X83203565Y-68652392D01*
X83203568Y-68652393D01*
X83304718Y-68685258D01*
X83405870Y-68718124D01*
X83615966Y-68751400D01*
X83615967Y-68751400D01*
X83828681Y-68751400D01*
X83828682Y-68751400D01*
X84038778Y-68718124D01*
X84241082Y-68652392D01*
X84430612Y-68555821D01*
X84602702Y-68430790D01*
X84753114Y-68280378D01*
X84878145Y-68108288D01*
X84974716Y-67918758D01*
X85040448Y-67716454D01*
X85073724Y-67506358D01*
X85073724Y-67293642D01*
X85040448Y-67083546D01*
X84974716Y-66881242D01*
X84974716Y-66881241D01*
X84878279Y-66691975D01*
X84878145Y-66691712D01*
X84753114Y-66519622D01*
X84602702Y-66369210D01*
X84430612Y-66244179D01*
X84241082Y-66147607D01*
X84241079Y-66147606D01*
X84038779Y-66081876D01*
X83933730Y-66065238D01*
X83828682Y-66048600D01*
X83615966Y-66048600D01*
X83545934Y-66059692D01*
X83405868Y-66081876D01*
X83203568Y-66147606D01*
X83203565Y-66147607D01*
X83014035Y-66244179D01*
X82959110Y-66284085D01*
X82841946Y-66369210D01*
X82841944Y-66369212D01*
X82841943Y-66369212D01*
X82691536Y-66519619D01*
X82691536Y-66519620D01*
X82691534Y-66519622D01*
X82637838Y-66593527D01*
X82566503Y-66691711D01*
X82469931Y-66881241D01*
X82469930Y-66881244D01*
X82404200Y-67083544D01*
X82370924Y-67293642D01*
X81573217Y-67293642D01*
X81539958Y-67083662D01*
X81474252Y-66881436D01*
X81474251Y-66881433D01*
X81377713Y-66691970D01*
X81338238Y-66637637D01*
X81338237Y-66637636D01*
X80784404Y-67191469D01*
X80778546Y-67169605D01*
X80699962Y-67033495D01*
X80588828Y-66922361D01*
X80452718Y-66843777D01*
X80430851Y-66837917D01*
X80984684Y-66284085D01*
X80984684Y-66284083D01*
X80930352Y-66244609D01*
X80740889Y-66148071D01*
X80740886Y-66148070D01*
X80538660Y-66082364D01*
X80328640Y-66049100D01*
X80116006Y-66049100D01*
X79905985Y-66082364D01*
X79703759Y-66148070D01*
X79703756Y-66148071D01*
X79514298Y-66244606D01*
X79514296Y-66244607D01*
X79459960Y-66284083D01*
X79459960Y-66284084D01*
X80013794Y-66837917D01*
X79991928Y-66843777D01*
X79855818Y-66922361D01*
X79744684Y-67033495D01*
X79666100Y-67169605D01*
X79660241Y-67191471D01*
X79106407Y-66637637D01*
X79106406Y-66637637D01*
X79066930Y-66691973D01*
X79066929Y-66691975D01*
X78970394Y-66881433D01*
X78970393Y-66881436D01*
X78904687Y-67083662D01*
X78871423Y-67293682D01*
X78073723Y-67293682D01*
X78073723Y-67293642D01*
X78040447Y-67083546D01*
X77974715Y-66881242D01*
X77974715Y-66881241D01*
X77878278Y-66691975D01*
X77878144Y-66691712D01*
X77753113Y-66519622D01*
X77602701Y-66369210D01*
X77430611Y-66244179D01*
X77241081Y-66147607D01*
X77241078Y-66147606D01*
X77038778Y-66081876D01*
X76933729Y-66065238D01*
X76828681Y-66048600D01*
X76615965Y-66048600D01*
X76545933Y-66059692D01*
X76405867Y-66081876D01*
X76203567Y-66147606D01*
X76203564Y-66147607D01*
X76014034Y-66244179D01*
X75959109Y-66284085D01*
X75841945Y-66369210D01*
X75841943Y-66369212D01*
X75841942Y-66369212D01*
X75691535Y-66519619D01*
X75691535Y-66519620D01*
X75691533Y-66519622D01*
X75637837Y-66593527D01*
X75566502Y-66691711D01*
X75469930Y-66881241D01*
X75469929Y-66881244D01*
X75404199Y-67083544D01*
X75370923Y-67293642D01*
X71179074Y-67293642D01*
X71145798Y-67083546D01*
X71080066Y-66881242D01*
X71080066Y-66881241D01*
X70983629Y-66691975D01*
X70983495Y-66691712D01*
X70858464Y-66519622D01*
X70708052Y-66369210D01*
X70535962Y-66244179D01*
X70346432Y-66147607D01*
X70346429Y-66147606D01*
X70144129Y-66081876D01*
X70039080Y-66065238D01*
X69934032Y-66048600D01*
X69721316Y-66048600D01*
X69651284Y-66059692D01*
X69511218Y-66081876D01*
X69308918Y-66147606D01*
X69308915Y-66147607D01*
X69119385Y-66244179D01*
X69064460Y-66284085D01*
X68947296Y-66369210D01*
X68947294Y-66369212D01*
X68947293Y-66369212D01*
X68796886Y-66519619D01*
X68796886Y-66519620D01*
X68796884Y-66519622D01*
X68743188Y-66593527D01*
X68671853Y-66691711D01*
X68575281Y-66881241D01*
X68575280Y-66881244D01*
X68509550Y-67083544D01*
X68476274Y-67293642D01*
X67678567Y-67293642D01*
X67645308Y-67083662D01*
X67579602Y-66881436D01*
X67579601Y-66881433D01*
X67483063Y-66691970D01*
X67443588Y-66637637D01*
X67443587Y-66637636D01*
X66889754Y-67191469D01*
X66883896Y-67169605D01*
X66805312Y-67033495D01*
X66694178Y-66922361D01*
X66558068Y-66843777D01*
X66536201Y-66837917D01*
X67090034Y-66284085D01*
X67090034Y-66284083D01*
X67035702Y-66244609D01*
X66846239Y-66148071D01*
X66846236Y-66148070D01*
X66644010Y-66082364D01*
X66433990Y-66049100D01*
X66221356Y-66049100D01*
X66011335Y-66082364D01*
X65809109Y-66148070D01*
X65809106Y-66148071D01*
X65619648Y-66244606D01*
X65619646Y-66244607D01*
X65565310Y-66284083D01*
X65565310Y-66284084D01*
X66119144Y-66837917D01*
X66097278Y-66843777D01*
X65961168Y-66922361D01*
X65850034Y-67033495D01*
X65771450Y-67169605D01*
X65765591Y-67191471D01*
X65211757Y-66637637D01*
X65211756Y-66637637D01*
X65172280Y-66691973D01*
X65172279Y-66691975D01*
X65075744Y-66881433D01*
X65075743Y-66881436D01*
X65010037Y-67083662D01*
X64976773Y-67293682D01*
X64179073Y-67293682D01*
X64179073Y-67293642D01*
X64145797Y-67083546D01*
X64080065Y-66881242D01*
X64080065Y-66881241D01*
X63983628Y-66691975D01*
X63983494Y-66691712D01*
X63858463Y-66519622D01*
X63708051Y-66369210D01*
X63535961Y-66244179D01*
X63346431Y-66147607D01*
X63346428Y-66147606D01*
X63144128Y-66081876D01*
X63039079Y-66065238D01*
X62934031Y-66048600D01*
X62721315Y-66048600D01*
X62651283Y-66059692D01*
X62511217Y-66081876D01*
X62308917Y-66147606D01*
X62308914Y-66147607D01*
X62119384Y-66244179D01*
X62064459Y-66284085D01*
X61947295Y-66369210D01*
X61947293Y-66369212D01*
X61947292Y-66369212D01*
X61796885Y-66519619D01*
X61796885Y-66519620D01*
X61796883Y-66519622D01*
X61743187Y-66593527D01*
X61671852Y-66691711D01*
X61575280Y-66881241D01*
X61575279Y-66881244D01*
X61509549Y-67083544D01*
X61476273Y-67293642D01*
X52468267Y-67293642D01*
X52468267Y-65338389D01*
X88874500Y-65338389D01*
X88874500Y-65511611D01*
X88901598Y-65682701D01*
X88955127Y-65847445D01*
X89033768Y-66001788D01*
X89135586Y-66141928D01*
X89135588Y-66141930D01*
X89243127Y-66249469D01*
X89276612Y-66310792D01*
X89271628Y-66380484D01*
X89229756Y-66436417D01*
X89220544Y-66442688D01*
X89156344Y-66482287D01*
X89032289Y-66606342D01*
X88940187Y-66755663D01*
X88940186Y-66755666D01*
X88885001Y-66922203D01*
X88885001Y-66922204D01*
X88885000Y-66922204D01*
X88874500Y-67024983D01*
X88874500Y-67825001D01*
X88874501Y-67825019D01*
X88885000Y-67927796D01*
X88885001Y-67927799D01*
X88940185Y-68094331D01*
X88940186Y-68094334D01*
X89032288Y-68243656D01*
X89156344Y-68367712D01*
X89305666Y-68459814D01*
X89472203Y-68514999D01*
X89574991Y-68525500D01*
X90925008Y-68525499D01*
X91027797Y-68514999D01*
X91194334Y-68459814D01*
X91343656Y-68367712D01*
X91467712Y-68243656D01*
X91559814Y-68094334D01*
X91614999Y-67927797D01*
X91625500Y-67825009D01*
X91625499Y-67024992D01*
X91614999Y-66922203D01*
X91559814Y-66755666D01*
X91467712Y-66606344D01*
X91343656Y-66482288D01*
X91343652Y-66482285D01*
X91279456Y-66442688D01*
X91232731Y-66390740D01*
X91221510Y-66321777D01*
X91249353Y-66257695D01*
X91256850Y-66249491D01*
X91364414Y-66141928D01*
X91466232Y-66001788D01*
X91544873Y-65847445D01*
X91598402Y-65682701D01*
X91625500Y-65511611D01*
X91625500Y-65338389D01*
X91598402Y-65167299D01*
X91544873Y-65002555D01*
X91466232Y-64848212D01*
X91364414Y-64708072D01*
X91241928Y-64585586D01*
X91158550Y-64525008D01*
X91115885Y-64469677D01*
X91109906Y-64400064D01*
X91142512Y-64338269D01*
X91158552Y-64324371D01*
X91241598Y-64264036D01*
X91364032Y-64141602D01*
X91465804Y-64001524D01*
X91544408Y-63847255D01*
X91597914Y-63682584D01*
X91599115Y-63675000D01*
X90530330Y-63675000D01*
X90550075Y-63655255D01*
X90599444Y-63569745D01*
X90625000Y-63474370D01*
X90625000Y-63375630D01*
X90599444Y-63280255D01*
X90550075Y-63194745D01*
X90530330Y-63175000D01*
X91599115Y-63175000D01*
X91599115Y-63174999D01*
X91597914Y-63167415D01*
X91544408Y-63002744D01*
X91465804Y-62848475D01*
X91364032Y-62708397D01*
X91241602Y-62585967D01*
X91101524Y-62484195D01*
X90947257Y-62405591D01*
X90782584Y-62352085D01*
X90611571Y-62325000D01*
X90500000Y-62325000D01*
X90500000Y-63144670D01*
X90480255Y-63124925D01*
X90394745Y-63075556D01*
X90299370Y-63050000D01*
X90200630Y-63050000D01*
X90105255Y-63075556D01*
X90019745Y-63124925D01*
X90000000Y-63144670D01*
X90000000Y-62325000D01*
X89888429Y-62325000D01*
X89717415Y-62352085D01*
X89552742Y-62405591D01*
X89398475Y-62484195D01*
X89258397Y-62585967D01*
X89135967Y-62708397D01*
X89034195Y-62848475D01*
X88955591Y-63002744D01*
X88902085Y-63167415D01*
X88900884Y-63174999D01*
X88900885Y-63175000D01*
X89969670Y-63175000D01*
X89949925Y-63194745D01*
X89900556Y-63280255D01*
X89875000Y-63375630D01*
X89875000Y-63474370D01*
X89900556Y-63569745D01*
X89949925Y-63655255D01*
X89969670Y-63675000D01*
X88900885Y-63675000D01*
X88902085Y-63682584D01*
X88955591Y-63847255D01*
X89034195Y-64001524D01*
X89135967Y-64141602D01*
X89258401Y-64264036D01*
X89341447Y-64324371D01*
X89384114Y-64379701D01*
X89390093Y-64449314D01*
X89357488Y-64511109D01*
X89341450Y-64525007D01*
X89258072Y-64585585D01*
X89135588Y-64708069D01*
X89135588Y-64708070D01*
X89135586Y-64708072D01*
X89091859Y-64768256D01*
X89033768Y-64848211D01*
X88955128Y-65002552D01*
X88901597Y-65167302D01*
X88874500Y-65338389D01*
X52468267Y-65338389D01*
X52468267Y-50393642D01*
X57948599Y-50393642D01*
X57948599Y-50606357D01*
X57981875Y-50816455D01*
X58047605Y-51018755D01*
X58047606Y-51018758D01*
X58144040Y-51208018D01*
X58144178Y-51208288D01*
X58269209Y-51380378D01*
X58419621Y-51530790D01*
X58591711Y-51655821D01*
X58684669Y-51703185D01*
X58781240Y-51752392D01*
X58781243Y-51752393D01*
X58882393Y-51785258D01*
X58983545Y-51818124D01*
X59193641Y-51851400D01*
X59193642Y-51851400D01*
X59406356Y-51851400D01*
X59406357Y-51851400D01*
X59616453Y-51818124D01*
X59818757Y-51752392D01*
X60008287Y-51655821D01*
X60180377Y-51530790D01*
X60330789Y-51380378D01*
X60455820Y-51208288D01*
X60552391Y-51018758D01*
X60618123Y-50816454D01*
X60651399Y-50606358D01*
X60651399Y-50393682D01*
X61449099Y-50393682D01*
X61449099Y-50606317D01*
X61482363Y-50816337D01*
X61548069Y-51018563D01*
X61548070Y-51018566D01*
X61644608Y-51208029D01*
X61684082Y-51262361D01*
X61684084Y-51262361D01*
X62237916Y-50708528D01*
X62243776Y-50730395D01*
X62322360Y-50866505D01*
X62433494Y-50977639D01*
X62569604Y-51056223D01*
X62591469Y-51062081D01*
X62037635Y-51615914D01*
X62037636Y-51615915D01*
X62091969Y-51655390D01*
X62281432Y-51751928D01*
X62281435Y-51751929D01*
X62483661Y-51817635D01*
X62693682Y-51850900D01*
X62906316Y-51850900D01*
X63116336Y-51817635D01*
X63318562Y-51751929D01*
X63318565Y-51751928D01*
X63508017Y-51655396D01*
X63508030Y-51655388D01*
X63562360Y-51615915D01*
X63562361Y-51615914D01*
X63008528Y-51062081D01*
X63030394Y-51056223D01*
X63166504Y-50977639D01*
X63277638Y-50866505D01*
X63356222Y-50730395D01*
X63362080Y-50708529D01*
X63915913Y-51262362D01*
X63915914Y-51262361D01*
X63955387Y-51208031D01*
X63955395Y-51208018D01*
X64051927Y-51018566D01*
X64051928Y-51018563D01*
X64117634Y-50816337D01*
X64150899Y-50606317D01*
X64150899Y-50393682D01*
X64150893Y-50393642D01*
X64948600Y-50393642D01*
X64948600Y-50606357D01*
X64981876Y-50816455D01*
X65047606Y-51018755D01*
X65047607Y-51018758D01*
X65144041Y-51208018D01*
X65144179Y-51208288D01*
X65269210Y-51380378D01*
X65419622Y-51530790D01*
X65591712Y-51655821D01*
X65684670Y-51703185D01*
X65781241Y-51752392D01*
X65781244Y-51752393D01*
X65882394Y-51785258D01*
X65983546Y-51818124D01*
X66193642Y-51851400D01*
X66193643Y-51851400D01*
X66406357Y-51851400D01*
X66406358Y-51851400D01*
X66616454Y-51818124D01*
X66818758Y-51752392D01*
X67008288Y-51655821D01*
X67180378Y-51530790D01*
X67330790Y-51380378D01*
X67455821Y-51208288D01*
X67552392Y-51018758D01*
X67618124Y-50816454D01*
X67651400Y-50606358D01*
X67651400Y-50393642D01*
X68448600Y-50393642D01*
X68448600Y-50606357D01*
X68481876Y-50816455D01*
X68547606Y-51018755D01*
X68547607Y-51018758D01*
X68644041Y-51208018D01*
X68644179Y-51208288D01*
X68769210Y-51380378D01*
X68919622Y-51530790D01*
X69091712Y-51655821D01*
X69184670Y-51703185D01*
X69281241Y-51752392D01*
X69281244Y-51752393D01*
X69382394Y-51785258D01*
X69483546Y-51818124D01*
X69693642Y-51851400D01*
X69693643Y-51851400D01*
X69906357Y-51851400D01*
X69906358Y-51851400D01*
X70116454Y-51818124D01*
X70318758Y-51752392D01*
X70508288Y-51655821D01*
X70680378Y-51530790D01*
X70830790Y-51380378D01*
X70955821Y-51208288D01*
X71052392Y-51018758D01*
X71118124Y-50816454D01*
X71151400Y-50606358D01*
X71151400Y-50393642D01*
X75348449Y-50393642D01*
X75348449Y-50606357D01*
X75381725Y-50816455D01*
X75447455Y-51018755D01*
X75447456Y-51018758D01*
X75543890Y-51208018D01*
X75544028Y-51208288D01*
X75669059Y-51380378D01*
X75819471Y-51530790D01*
X75991561Y-51655821D01*
X76084519Y-51703185D01*
X76181090Y-51752392D01*
X76181093Y-51752393D01*
X76282243Y-51785258D01*
X76383395Y-51818124D01*
X76593491Y-51851400D01*
X76593492Y-51851400D01*
X76806206Y-51851400D01*
X76806207Y-51851400D01*
X77016303Y-51818124D01*
X77218607Y-51752392D01*
X77408137Y-51655821D01*
X77580227Y-51530790D01*
X77730639Y-51380378D01*
X77855670Y-51208288D01*
X77952241Y-51018758D01*
X78017973Y-50816454D01*
X78051249Y-50606358D01*
X78051249Y-50393682D01*
X78848949Y-50393682D01*
X78848949Y-50606317D01*
X78882213Y-50816337D01*
X78947919Y-51018563D01*
X78947920Y-51018566D01*
X79044458Y-51208029D01*
X79083932Y-51262361D01*
X79083934Y-51262361D01*
X79637766Y-50708528D01*
X79643626Y-50730395D01*
X79722210Y-50866505D01*
X79833344Y-50977639D01*
X79969454Y-51056223D01*
X79991319Y-51062081D01*
X79437485Y-51615914D01*
X79437486Y-51615915D01*
X79491819Y-51655390D01*
X79681282Y-51751928D01*
X79681285Y-51751929D01*
X79883511Y-51817635D01*
X80093532Y-51850900D01*
X80306166Y-51850900D01*
X80516186Y-51817635D01*
X80718412Y-51751929D01*
X80718415Y-51751928D01*
X80907867Y-51655396D01*
X80907880Y-51655388D01*
X80962210Y-51615915D01*
X80962211Y-51615914D01*
X80408378Y-51062081D01*
X80430244Y-51056223D01*
X80566354Y-50977639D01*
X80677488Y-50866505D01*
X80756072Y-50730395D01*
X80761930Y-50708529D01*
X81315763Y-51262362D01*
X81315764Y-51262361D01*
X81355237Y-51208031D01*
X81355245Y-51208018D01*
X81451777Y-51018566D01*
X81451778Y-51018563D01*
X81517484Y-50816337D01*
X81550749Y-50606317D01*
X81550749Y-50393682D01*
X81550743Y-50393642D01*
X82348450Y-50393642D01*
X82348450Y-50606357D01*
X82381726Y-50816455D01*
X82447456Y-51018755D01*
X82447457Y-51018758D01*
X82543891Y-51208018D01*
X82544029Y-51208288D01*
X82669060Y-51380378D01*
X82819472Y-51530790D01*
X82991562Y-51655821D01*
X83084520Y-51703185D01*
X83181091Y-51752392D01*
X83181094Y-51752393D01*
X83282244Y-51785258D01*
X83383396Y-51818124D01*
X83593492Y-51851400D01*
X83593493Y-51851400D01*
X83806207Y-51851400D01*
X83806208Y-51851400D01*
X84016304Y-51818124D01*
X84218608Y-51752392D01*
X84408138Y-51655821D01*
X84580228Y-51530790D01*
X84730640Y-51380378D01*
X84855671Y-51208288D01*
X84952242Y-51018758D01*
X85017974Y-50816454D01*
X85051250Y-50606358D01*
X85051250Y-50393642D01*
X85848450Y-50393642D01*
X85848450Y-50606357D01*
X85881726Y-50816455D01*
X85947456Y-51018755D01*
X85947457Y-51018758D01*
X86043891Y-51208018D01*
X86044029Y-51208288D01*
X86169060Y-51380378D01*
X86319472Y-51530790D01*
X86491562Y-51655821D01*
X86584520Y-51703185D01*
X86681091Y-51752392D01*
X86681094Y-51752393D01*
X86782244Y-51785258D01*
X86883396Y-51818124D01*
X87093492Y-51851400D01*
X87093493Y-51851400D01*
X87306207Y-51851400D01*
X87306208Y-51851400D01*
X87516304Y-51818124D01*
X87718608Y-51752392D01*
X87908138Y-51655821D01*
X88080228Y-51530790D01*
X88230640Y-51380378D01*
X88355671Y-51208288D01*
X88452242Y-51018758D01*
X88517974Y-50816454D01*
X88551250Y-50606358D01*
X88551250Y-50393642D01*
X88517974Y-50183546D01*
X88452242Y-49981242D01*
X88452242Y-49981241D01*
X88355805Y-49791975D01*
X88355671Y-49791712D01*
X88230640Y-49619622D01*
X88080228Y-49469210D01*
X87908138Y-49344179D01*
X87718608Y-49247607D01*
X87718605Y-49247606D01*
X87516305Y-49181876D01*
X87411256Y-49165238D01*
X87306208Y-49148600D01*
X87093492Y-49148600D01*
X87023460Y-49159692D01*
X86883394Y-49181876D01*
X86681094Y-49247606D01*
X86681091Y-49247607D01*
X86491561Y-49344179D01*
X86436636Y-49384085D01*
X86319472Y-49469210D01*
X86319470Y-49469212D01*
X86319469Y-49469212D01*
X86169062Y-49619619D01*
X86169062Y-49619620D01*
X86169060Y-49619622D01*
X86115364Y-49693527D01*
X86044029Y-49791711D01*
X85947457Y-49981241D01*
X85947456Y-49981244D01*
X85881726Y-50183544D01*
X85848450Y-50393642D01*
X85051250Y-50393642D01*
X85017974Y-50183546D01*
X84952242Y-49981242D01*
X84952242Y-49981241D01*
X84855805Y-49791975D01*
X84855671Y-49791712D01*
X84730640Y-49619622D01*
X84580228Y-49469210D01*
X84408138Y-49344179D01*
X84218608Y-49247607D01*
X84218605Y-49247606D01*
X84016305Y-49181876D01*
X83911256Y-49165238D01*
X83806208Y-49148600D01*
X83593492Y-49148600D01*
X83523460Y-49159692D01*
X83383394Y-49181876D01*
X83181094Y-49247606D01*
X83181091Y-49247607D01*
X82991561Y-49344179D01*
X82936636Y-49384085D01*
X82819472Y-49469210D01*
X82819470Y-49469212D01*
X82819469Y-49469212D01*
X82669062Y-49619619D01*
X82669062Y-49619620D01*
X82669060Y-49619622D01*
X82615364Y-49693527D01*
X82544029Y-49791711D01*
X82447457Y-49981241D01*
X82447456Y-49981244D01*
X82381726Y-50183544D01*
X82348450Y-50393642D01*
X81550743Y-50393642D01*
X81517484Y-50183662D01*
X81451778Y-49981436D01*
X81451777Y-49981433D01*
X81355239Y-49791970D01*
X81315764Y-49737637D01*
X81315763Y-49737636D01*
X80761930Y-50291469D01*
X80756072Y-50269605D01*
X80677488Y-50133495D01*
X80566354Y-50022361D01*
X80430244Y-49943777D01*
X80408377Y-49937917D01*
X80962210Y-49384085D01*
X80962210Y-49384083D01*
X80907878Y-49344609D01*
X80718415Y-49248071D01*
X80718412Y-49248070D01*
X80516186Y-49182364D01*
X80306166Y-49149100D01*
X80093532Y-49149100D01*
X79883511Y-49182364D01*
X79681285Y-49248070D01*
X79681282Y-49248071D01*
X79491824Y-49344606D01*
X79491822Y-49344607D01*
X79437486Y-49384083D01*
X79437486Y-49384084D01*
X79991320Y-49937917D01*
X79969454Y-49943777D01*
X79833344Y-50022361D01*
X79722210Y-50133495D01*
X79643626Y-50269605D01*
X79637767Y-50291471D01*
X79083933Y-49737637D01*
X79083932Y-49737637D01*
X79044456Y-49791973D01*
X79044455Y-49791975D01*
X78947920Y-49981433D01*
X78947919Y-49981436D01*
X78882213Y-50183662D01*
X78848949Y-50393682D01*
X78051249Y-50393682D01*
X78051249Y-50393642D01*
X78017973Y-50183546D01*
X77952241Y-49981242D01*
X77952241Y-49981241D01*
X77855804Y-49791975D01*
X77855670Y-49791712D01*
X77730639Y-49619622D01*
X77580227Y-49469210D01*
X77408137Y-49344179D01*
X77218607Y-49247607D01*
X77218604Y-49247606D01*
X77016304Y-49181876D01*
X76911255Y-49165238D01*
X76806207Y-49148600D01*
X76593491Y-49148600D01*
X76523459Y-49159692D01*
X76383393Y-49181876D01*
X76181093Y-49247606D01*
X76181090Y-49247607D01*
X75991560Y-49344179D01*
X75936635Y-49384085D01*
X75819471Y-49469210D01*
X75819469Y-49469212D01*
X75819468Y-49469212D01*
X75669061Y-49619619D01*
X75669061Y-49619620D01*
X75669059Y-49619622D01*
X75615363Y-49693527D01*
X75544028Y-49791711D01*
X75447456Y-49981241D01*
X75447455Y-49981244D01*
X75381725Y-50183544D01*
X75348449Y-50393642D01*
X71151400Y-50393642D01*
X71118124Y-50183546D01*
X71052392Y-49981242D01*
X71052392Y-49981241D01*
X70955955Y-49791975D01*
X70955821Y-49791712D01*
X70830790Y-49619622D01*
X70680378Y-49469210D01*
X70508288Y-49344179D01*
X70318758Y-49247607D01*
X70318755Y-49247606D01*
X70116455Y-49181876D01*
X70011406Y-49165238D01*
X69906358Y-49148600D01*
X69693642Y-49148600D01*
X69623610Y-49159692D01*
X69483544Y-49181876D01*
X69281244Y-49247606D01*
X69281241Y-49247607D01*
X69091711Y-49344179D01*
X69036786Y-49384085D01*
X68919622Y-49469210D01*
X68919620Y-49469212D01*
X68919619Y-49469212D01*
X68769212Y-49619619D01*
X68769212Y-49619620D01*
X68769210Y-49619622D01*
X68715514Y-49693527D01*
X68644179Y-49791711D01*
X68547607Y-49981241D01*
X68547606Y-49981244D01*
X68481876Y-50183544D01*
X68448600Y-50393642D01*
X67651400Y-50393642D01*
X67618124Y-50183546D01*
X67552392Y-49981242D01*
X67552392Y-49981241D01*
X67455955Y-49791975D01*
X67455821Y-49791712D01*
X67330790Y-49619622D01*
X67180378Y-49469210D01*
X67008288Y-49344179D01*
X66818758Y-49247607D01*
X66818755Y-49247606D01*
X66616455Y-49181876D01*
X66511406Y-49165238D01*
X66406358Y-49148600D01*
X66193642Y-49148600D01*
X66123610Y-49159692D01*
X65983544Y-49181876D01*
X65781244Y-49247606D01*
X65781241Y-49247607D01*
X65591711Y-49344179D01*
X65536786Y-49384085D01*
X65419622Y-49469210D01*
X65419620Y-49469212D01*
X65419619Y-49469212D01*
X65269212Y-49619619D01*
X65269212Y-49619620D01*
X65269210Y-49619622D01*
X65215514Y-49693527D01*
X65144179Y-49791711D01*
X65047607Y-49981241D01*
X65047606Y-49981244D01*
X64981876Y-50183544D01*
X64948600Y-50393642D01*
X64150893Y-50393642D01*
X64117634Y-50183662D01*
X64051928Y-49981436D01*
X64051927Y-49981433D01*
X63955389Y-49791970D01*
X63915914Y-49737637D01*
X63915913Y-49737636D01*
X63362080Y-50291469D01*
X63356222Y-50269605D01*
X63277638Y-50133495D01*
X63166504Y-50022361D01*
X63030394Y-49943777D01*
X63008527Y-49937917D01*
X63562360Y-49384085D01*
X63562360Y-49384083D01*
X63508028Y-49344609D01*
X63318565Y-49248071D01*
X63318562Y-49248070D01*
X63116336Y-49182364D01*
X62906316Y-49149100D01*
X62693682Y-49149100D01*
X62483661Y-49182364D01*
X62281435Y-49248070D01*
X62281432Y-49248071D01*
X62091974Y-49344606D01*
X62091972Y-49344607D01*
X62037636Y-49384083D01*
X62037636Y-49384084D01*
X62591470Y-49937917D01*
X62569604Y-49943777D01*
X62433494Y-50022361D01*
X62322360Y-50133495D01*
X62243776Y-50269605D01*
X62237917Y-50291471D01*
X61684083Y-49737637D01*
X61684082Y-49737637D01*
X61644606Y-49791973D01*
X61644605Y-49791975D01*
X61548070Y-49981433D01*
X61548069Y-49981436D01*
X61482363Y-50183662D01*
X61449099Y-50393682D01*
X60651399Y-50393682D01*
X60651399Y-50393642D01*
X60618123Y-50183546D01*
X60552391Y-49981242D01*
X60552391Y-49981241D01*
X60455954Y-49791975D01*
X60455820Y-49791712D01*
X60330789Y-49619622D01*
X60180377Y-49469210D01*
X60008287Y-49344179D01*
X59818757Y-49247607D01*
X59818754Y-49247606D01*
X59616454Y-49181876D01*
X59511405Y-49165238D01*
X59406357Y-49148600D01*
X59193641Y-49148600D01*
X59123609Y-49159692D01*
X58983543Y-49181876D01*
X58781243Y-49247606D01*
X58781240Y-49247607D01*
X58591710Y-49344179D01*
X58536785Y-49384085D01*
X58419621Y-49469210D01*
X58419619Y-49469212D01*
X58419618Y-49469212D01*
X58269211Y-49619619D01*
X58269211Y-49619620D01*
X58269209Y-49619622D01*
X58215513Y-49693527D01*
X58144178Y-49791711D01*
X58047606Y-49981241D01*
X58047605Y-49981244D01*
X57981875Y-50183544D01*
X57948599Y-50393642D01*
X52468267Y-50393642D01*
X52468267Y-42504066D01*
X52468532Y-42495956D01*
X52475233Y-42393713D01*
X53117267Y-42393713D01*
X53117267Y-42606286D01*
X53150520Y-42816239D01*
X53216211Y-43018414D01*
X53312718Y-43207820D01*
X53437657Y-43379786D01*
X53587980Y-43530109D01*
X53759946Y-43655048D01*
X53759948Y-43655049D01*
X53759951Y-43655051D01*
X53949355Y-43751557D01*
X54151524Y-43817246D01*
X54361480Y-43850500D01*
X54361481Y-43850500D01*
X54574053Y-43850500D01*
X54574054Y-43850500D01*
X54784010Y-43817246D01*
X54986179Y-43751557D01*
X55175583Y-43655051D01*
X55197556Y-43639086D01*
X55347553Y-43530109D01*
X55347555Y-43530106D01*
X55347559Y-43530104D01*
X55497871Y-43379792D01*
X55497873Y-43379788D01*
X55497876Y-43379786D01*
X55622815Y-43207820D01*
X55622814Y-43207820D01*
X55622818Y-43207816D01*
X55719324Y-43018412D01*
X55785013Y-42816243D01*
X55818267Y-42606287D01*
X55818267Y-42393713D01*
X93149500Y-42393713D01*
X93149500Y-42606286D01*
X93182753Y-42816239D01*
X93248444Y-43018414D01*
X93344951Y-43207820D01*
X93469890Y-43379786D01*
X93620213Y-43530109D01*
X93792179Y-43655048D01*
X93792181Y-43655049D01*
X93792184Y-43655051D01*
X93981588Y-43751557D01*
X94183757Y-43817246D01*
X94393713Y-43850500D01*
X94393714Y-43850500D01*
X94606286Y-43850500D01*
X94606287Y-43850500D01*
X94816243Y-43817246D01*
X95018412Y-43751557D01*
X95207816Y-43655051D01*
X95229789Y-43639086D01*
X95379786Y-43530109D01*
X95379788Y-43530106D01*
X95379792Y-43530104D01*
X95530104Y-43379792D01*
X95530106Y-43379788D01*
X95530109Y-43379786D01*
X95655048Y-43207820D01*
X95655047Y-43207820D01*
X95655051Y-43207816D01*
X95751557Y-43018412D01*
X95817246Y-42816243D01*
X95850500Y-42606287D01*
X95850500Y-42393713D01*
X95817246Y-42183757D01*
X95751557Y-41981588D01*
X95655051Y-41792184D01*
X95655049Y-41792181D01*
X95655048Y-41792179D01*
X95530109Y-41620213D01*
X95379786Y-41469890D01*
X95207820Y-41344951D01*
X95018414Y-41248444D01*
X95018413Y-41248443D01*
X95018412Y-41248443D01*
X94816243Y-41182754D01*
X94816241Y-41182753D01*
X94816240Y-41182753D01*
X94654957Y-41157208D01*
X94606287Y-41149500D01*
X94393713Y-41149500D01*
X94345042Y-41157208D01*
X94183760Y-41182753D01*
X93981585Y-41248444D01*
X93792179Y-41344951D01*
X93620213Y-41469890D01*
X93469890Y-41620213D01*
X93344951Y-41792179D01*
X93248444Y-41981585D01*
X93182753Y-42183760D01*
X93149500Y-42393713D01*
X55818267Y-42393713D01*
X55785013Y-42183757D01*
X55719324Y-41981588D01*
X55622818Y-41792184D01*
X55622816Y-41792181D01*
X55622815Y-41792179D01*
X55497876Y-41620213D01*
X55347553Y-41469890D01*
X55175587Y-41344951D01*
X54986181Y-41248444D01*
X54986180Y-41248443D01*
X54986179Y-41248443D01*
X54784010Y-41182754D01*
X54784008Y-41182753D01*
X54784007Y-41182753D01*
X54622724Y-41157208D01*
X54574054Y-41149500D01*
X54361480Y-41149500D01*
X54312809Y-41157208D01*
X54151527Y-41182753D01*
X53949352Y-41248444D01*
X53759946Y-41344951D01*
X53587980Y-41469890D01*
X53437657Y-41620213D01*
X53312718Y-41792179D01*
X53216211Y-41981585D01*
X53150520Y-42183760D01*
X53117267Y-42393713D01*
X52475233Y-42393713D01*
X52476084Y-42380731D01*
X52476084Y-42380730D01*
X52484842Y-42247104D01*
X52486957Y-42231048D01*
X52534812Y-41990462D01*
X52539010Y-41974797D01*
X52562104Y-41906762D01*
X52617860Y-41742512D01*
X52624058Y-41727547D01*
X52732557Y-41507533D01*
X52740664Y-41493493D01*
X52839916Y-41344951D01*
X52876944Y-41289534D01*
X52886806Y-41276681D01*
X53048553Y-41092244D01*
X53060011Y-41080786D01*
X53244448Y-40919039D01*
X53257301Y-40909177D01*
X53461260Y-40772897D01*
X53475300Y-40764790D01*
X53695314Y-40656291D01*
X53710279Y-40650093D01*
X53874529Y-40594337D01*
X53942564Y-40571243D01*
X53958231Y-40567045D01*
X54198815Y-40519190D01*
X54214869Y-40517075D01*
X54463724Y-40500765D01*
X54471834Y-40500500D01*
X54533659Y-40500500D01*
X94434108Y-40500500D01*
X94495933Y-40500500D01*
X94504043Y-40500765D01*
G37*
%TD.AperFunction*%
%TD*%
M02*
