%TF.GenerationSoftware,KiCad,Pcbnew,10.0.3-10.0.3~ubuntu24.04.1*%
%TF.CreationDate,2026-05-28T09:56:07-06:00*%
%TF.ProjectId,SensorBoard_v1.5,53656e73-6f72-4426-9f61-72645f76312e,rev?*%
%TF.SameCoordinates,Original*%
%TF.FileFunction,Soldermask,Top*%
%TF.FilePolarity,Negative*%
%FSLAX46Y46*%
G04 Gerber Fmt 4.6, Leading zero omitted, Abs format (unit mm)*
G04 Created by KiCad (PCBNEW 10.0.3-10.0.3~ubuntu24.04.1) date 2026-05-28 09:56:07*
%MOMM*%
%LPD*%
G01*
G04 APERTURE LIST*
G04 APERTURE END LIST*
G36*
X54724557Y-71430393D02*
G01*
X54888719Y-71483733D01*
X55042515Y-71562096D01*
X55182160Y-71663553D01*
X55304214Y-71785607D01*
X55405671Y-71925252D01*
X55484034Y-72079048D01*
X55537374Y-72243210D01*
X55564376Y-72413695D01*
X55564376Y-72586305D01*
X55537374Y-72756790D01*
X55484034Y-72920952D01*
X55405671Y-73074748D01*
X55304214Y-73214393D01*
X55182160Y-73336447D01*
X55042515Y-73437904D01*
X54888719Y-73516267D01*
X54724557Y-73569607D01*
X54554072Y-73596609D01*
X54381462Y-73596609D01*
X54210977Y-73569607D01*
X54046815Y-73516267D01*
X53893019Y-73437904D01*
X53753374Y-73336447D01*
X53631320Y-73214393D01*
X53529863Y-73074748D01*
X53451500Y-72920952D01*
X53398160Y-72756790D01*
X53371158Y-72586305D01*
X53371158Y-72413695D01*
X53398160Y-72243210D01*
X53451500Y-72079048D01*
X53529863Y-71925252D01*
X53631320Y-71785607D01*
X53753374Y-71663553D01*
X53893019Y-71562096D01*
X54046815Y-71483733D01*
X54210977Y-71430393D01*
X54381462Y-71403391D01*
X54554072Y-71403391D01*
X54724557Y-71430393D01*
G37*
G36*
X94756790Y-71430393D02*
G01*
X94920952Y-71483733D01*
X95074748Y-71562096D01*
X95214393Y-71663553D01*
X95336447Y-71785607D01*
X95437904Y-71925252D01*
X95516267Y-72079048D01*
X95569607Y-72243210D01*
X95596609Y-72413695D01*
X95596609Y-72586305D01*
X95569607Y-72756790D01*
X95516267Y-72920952D01*
X95437904Y-73074748D01*
X95336447Y-73214393D01*
X95214393Y-73336447D01*
X95074748Y-73437904D01*
X94920952Y-73516267D01*
X94756790Y-73569607D01*
X94586305Y-73596609D01*
X94413695Y-73596609D01*
X94243210Y-73569607D01*
X94079048Y-73516267D01*
X93925252Y-73437904D01*
X93785607Y-73336447D01*
X93663553Y-73214393D01*
X93562096Y-73074748D01*
X93483733Y-72920952D01*
X93430393Y-72756790D01*
X93403391Y-72586305D01*
X93403391Y-72413695D01*
X93430393Y-72243210D01*
X93483733Y-72079048D01*
X93562096Y-71925252D01*
X93663553Y-71785607D01*
X93785607Y-71663553D01*
X93925252Y-71562096D01*
X94079048Y-71483733D01*
X94243210Y-71430393D01*
X94413695Y-71403391D01*
X94586305Y-71403391D01*
X94756790Y-71430393D01*
G37*
G36*
X63074676Y-66585739D02*
G01*
X63228784Y-66649573D01*
X63367478Y-66742245D01*
X63485428Y-66860195D01*
X63578100Y-66998889D01*
X63641934Y-67152997D01*
X63674476Y-67316597D01*
X63674476Y-67483403D01*
X63641934Y-67647003D01*
X63578100Y-67801111D01*
X63485428Y-67939805D01*
X63367478Y-68057755D01*
X63228784Y-68150427D01*
X63074676Y-68214261D01*
X62911076Y-68246803D01*
X62744270Y-68246803D01*
X62580670Y-68214261D01*
X62426562Y-68150427D01*
X62287868Y-68057755D01*
X62169918Y-67939805D01*
X62077246Y-67801111D01*
X62013412Y-67647003D01*
X61980870Y-67483403D01*
X61980870Y-67316597D01*
X62013412Y-67152997D01*
X62077246Y-66998889D01*
X62169918Y-66860195D01*
X62287868Y-66742245D01*
X62426562Y-66649573D01*
X62580670Y-66585739D01*
X62744270Y-66553197D01*
X62911076Y-66553197D01*
X63074676Y-66585739D01*
G37*
G36*
X66574676Y-66585739D02*
G01*
X66728784Y-66649573D01*
X66867478Y-66742245D01*
X66985428Y-66860195D01*
X67078100Y-66998889D01*
X67141934Y-67152997D01*
X67174476Y-67316597D01*
X67174476Y-67483403D01*
X67141934Y-67647003D01*
X67078100Y-67801111D01*
X66985428Y-67939805D01*
X66867478Y-68057755D01*
X66728784Y-68150427D01*
X66574676Y-68214261D01*
X66411076Y-68246803D01*
X66244270Y-68246803D01*
X66080670Y-68214261D01*
X65926562Y-68150427D01*
X65787868Y-68057755D01*
X65669918Y-67939805D01*
X65577246Y-67801111D01*
X65513412Y-67647003D01*
X65480870Y-67483403D01*
X65480870Y-67316597D01*
X65513412Y-67152997D01*
X65577246Y-66998889D01*
X65669918Y-66860195D01*
X65787868Y-66742245D01*
X65926562Y-66649573D01*
X66080670Y-66585739D01*
X66244270Y-66553197D01*
X66411076Y-66553197D01*
X66574676Y-66585739D01*
G37*
G36*
X70074677Y-66585739D02*
G01*
X70228785Y-66649573D01*
X70367479Y-66742245D01*
X70485429Y-66860195D01*
X70578101Y-66998889D01*
X70641935Y-67152997D01*
X70674477Y-67316597D01*
X70674477Y-67483403D01*
X70641935Y-67647003D01*
X70578101Y-67801111D01*
X70485429Y-67939805D01*
X70367479Y-68057755D01*
X70228785Y-68150427D01*
X70074677Y-68214261D01*
X69911077Y-68246803D01*
X69744271Y-68246803D01*
X69580671Y-68214261D01*
X69426563Y-68150427D01*
X69287869Y-68057755D01*
X69169919Y-67939805D01*
X69077247Y-67801111D01*
X69013413Y-67647003D01*
X68980871Y-67483403D01*
X68980871Y-67316597D01*
X69013413Y-67152997D01*
X69077247Y-66998889D01*
X69169919Y-66860195D01*
X69287869Y-66742245D01*
X69426563Y-66649573D01*
X69580671Y-66585739D01*
X69744271Y-66553197D01*
X69911077Y-66553197D01*
X70074677Y-66585739D01*
G37*
G36*
X76969326Y-66585739D02*
G01*
X77123434Y-66649573D01*
X77262128Y-66742245D01*
X77380078Y-66860195D01*
X77472750Y-66998889D01*
X77536584Y-67152997D01*
X77569126Y-67316597D01*
X77569126Y-67483403D01*
X77536584Y-67647003D01*
X77472750Y-67801111D01*
X77380078Y-67939805D01*
X77262128Y-68057755D01*
X77123434Y-68150427D01*
X76969326Y-68214261D01*
X76805726Y-68246803D01*
X76638920Y-68246803D01*
X76475320Y-68214261D01*
X76321212Y-68150427D01*
X76182518Y-68057755D01*
X76064568Y-67939805D01*
X75971896Y-67801111D01*
X75908062Y-67647003D01*
X75875520Y-67483403D01*
X75875520Y-67316597D01*
X75908062Y-67152997D01*
X75971896Y-66998889D01*
X76064568Y-66860195D01*
X76182518Y-66742245D01*
X76321212Y-66649573D01*
X76475320Y-66585739D01*
X76638920Y-66553197D01*
X76805726Y-66553197D01*
X76969326Y-66585739D01*
G37*
G36*
X80469326Y-66585739D02*
G01*
X80623434Y-66649573D01*
X80762128Y-66742245D01*
X80880078Y-66860195D01*
X80972750Y-66998889D01*
X81036584Y-67152997D01*
X81069126Y-67316597D01*
X81069126Y-67483403D01*
X81036584Y-67647003D01*
X80972750Y-67801111D01*
X80880078Y-67939805D01*
X80762128Y-68057755D01*
X80623434Y-68150427D01*
X80469326Y-68214261D01*
X80305726Y-68246803D01*
X80138920Y-68246803D01*
X79975320Y-68214261D01*
X79821212Y-68150427D01*
X79682518Y-68057755D01*
X79564568Y-67939805D01*
X79471896Y-67801111D01*
X79408062Y-67647003D01*
X79375520Y-67483403D01*
X79375520Y-67316597D01*
X79408062Y-67152997D01*
X79471896Y-66998889D01*
X79564568Y-66860195D01*
X79682518Y-66742245D01*
X79821212Y-66649573D01*
X79975320Y-66585739D01*
X80138920Y-66553197D01*
X80305726Y-66553197D01*
X80469326Y-66585739D01*
G37*
G36*
X83969327Y-66585739D02*
G01*
X84123435Y-66649573D01*
X84262129Y-66742245D01*
X84380079Y-66860195D01*
X84472751Y-66998889D01*
X84536585Y-67152997D01*
X84569127Y-67316597D01*
X84569127Y-67483403D01*
X84536585Y-67647003D01*
X84472751Y-67801111D01*
X84380079Y-67939805D01*
X84262129Y-68057755D01*
X84123435Y-68150427D01*
X83969327Y-68214261D01*
X83805727Y-68246803D01*
X83638921Y-68246803D01*
X83475321Y-68214261D01*
X83321213Y-68150427D01*
X83182519Y-68057755D01*
X83064569Y-67939805D01*
X82971897Y-67801111D01*
X82908063Y-67647003D01*
X82875521Y-67483403D01*
X82875521Y-67316597D01*
X82908063Y-67152997D01*
X82971897Y-66998889D01*
X83064569Y-66860195D01*
X83182519Y-66742245D01*
X83321213Y-66649573D01*
X83475321Y-66585739D01*
X83638921Y-66553197D01*
X83805727Y-66553197D01*
X83969327Y-66585739D01*
G37*
G36*
X90879850Y-66825964D02*
G01*
X90930040Y-66831787D01*
X90947189Y-66839359D01*
X90970671Y-66844030D01*
X90995810Y-66860827D01*
X91015696Y-66869608D01*
X91029277Y-66883189D01*
X91051777Y-66898223D01*
X91066810Y-66920722D01*
X91080391Y-66934303D01*
X91089170Y-66954186D01*
X91105970Y-66979329D01*
X91110641Y-67002812D01*
X91118212Y-67019959D01*
X91124033Y-67070139D01*
X91125000Y-67075000D01*
X91125000Y-67775000D01*
X91124032Y-67779863D01*
X91118212Y-67830040D01*
X91110641Y-67847185D01*
X91105970Y-67870671D01*
X91089169Y-67895815D01*
X91080391Y-67915696D01*
X91066812Y-67929274D01*
X91051777Y-67951777D01*
X91029274Y-67966812D01*
X91015696Y-67980391D01*
X90995815Y-67989169D01*
X90970671Y-68005970D01*
X90947185Y-68010641D01*
X90930040Y-68018212D01*
X90879861Y-68024032D01*
X90875000Y-68025000D01*
X89625000Y-68025000D01*
X89620138Y-68024032D01*
X89569959Y-68018212D01*
X89552812Y-68010641D01*
X89529329Y-68005970D01*
X89504186Y-67989170D01*
X89484303Y-67980391D01*
X89470722Y-67966810D01*
X89448223Y-67951777D01*
X89433189Y-67929277D01*
X89419608Y-67915696D01*
X89410827Y-67895810D01*
X89394030Y-67870671D01*
X89389359Y-67847189D01*
X89381787Y-67830040D01*
X89375964Y-67779849D01*
X89375000Y-67775000D01*
X89375000Y-67075000D01*
X89375964Y-67070150D01*
X89381787Y-67019959D01*
X89389359Y-67002808D01*
X89394030Y-66979329D01*
X89410826Y-66954191D01*
X89419608Y-66934303D01*
X89433191Y-66920719D01*
X89448223Y-66898223D01*
X89470719Y-66883191D01*
X89484303Y-66869608D01*
X89504191Y-66860826D01*
X89529329Y-66844030D01*
X89552808Y-66839359D01*
X89569959Y-66831787D01*
X89620151Y-66825964D01*
X89625000Y-66825000D01*
X90875000Y-66825000D01*
X90879850Y-66825964D01*
G37*
G36*
X90529417Y-64825289D02*
G01*
X90582329Y-64827888D01*
X90588848Y-64829184D01*
X90603316Y-64830133D01*
X90631266Y-64837622D01*
X90699084Y-64851112D01*
X90731091Y-64864370D01*
X90754610Y-64870672D01*
X90775698Y-64882847D01*
X90807702Y-64896104D01*
X90865184Y-64934512D01*
X90890257Y-64948988D01*
X90897119Y-64955850D01*
X90905449Y-64961416D01*
X90988583Y-65044550D01*
X90994148Y-65052879D01*
X91001012Y-65059743D01*
X91015489Y-65084818D01*
X91053895Y-65142297D01*
X91067150Y-65174298D01*
X91079328Y-65195390D01*
X91085630Y-65218912D01*
X91098887Y-65250915D01*
X91112374Y-65318722D01*
X91119867Y-65346684D01*
X91119867Y-65356388D01*
X91121822Y-65366217D01*
X91121822Y-65483782D01*
X91119867Y-65493610D01*
X91119867Y-65503316D01*
X91112373Y-65531280D01*
X91098887Y-65599084D01*
X91085631Y-65631084D01*
X91079328Y-65654610D01*
X91067149Y-65675704D01*
X91053895Y-65707702D01*
X91015493Y-65765173D01*
X91001012Y-65790257D01*
X90994146Y-65797122D01*
X90988583Y-65805449D01*
X90905449Y-65888583D01*
X90897122Y-65894146D01*
X90890257Y-65901012D01*
X90865173Y-65915493D01*
X90807702Y-65953895D01*
X90775704Y-65967149D01*
X90754610Y-65979328D01*
X90731084Y-65985631D01*
X90699084Y-65998887D01*
X90631280Y-66012373D01*
X90603316Y-66019867D01*
X90588840Y-66020815D01*
X90582329Y-66022111D01*
X90529423Y-66024710D01*
X90525000Y-66025000D01*
X90523522Y-66025000D01*
X89976478Y-66025000D01*
X89975000Y-66025000D01*
X89970577Y-66024710D01*
X89917670Y-66022111D01*
X89911157Y-66020815D01*
X89896684Y-66019867D01*
X89868722Y-66012374D01*
X89800915Y-65998887D01*
X89768912Y-65985630D01*
X89745390Y-65979328D01*
X89724298Y-65967150D01*
X89692297Y-65953895D01*
X89634818Y-65915489D01*
X89609743Y-65901012D01*
X89602879Y-65894148D01*
X89594550Y-65888583D01*
X89511416Y-65805449D01*
X89505850Y-65797119D01*
X89498988Y-65790257D01*
X89484512Y-65765184D01*
X89446104Y-65707702D01*
X89432847Y-65675698D01*
X89420672Y-65654610D01*
X89414370Y-65631091D01*
X89401112Y-65599084D01*
X89387624Y-65531274D01*
X89380133Y-65503316D01*
X89380133Y-65493610D01*
X89378178Y-65483782D01*
X89378178Y-65366217D01*
X89380133Y-65356388D01*
X89380133Y-65346684D01*
X89387623Y-65318728D01*
X89401112Y-65250915D01*
X89414371Y-65218905D01*
X89420672Y-65195390D01*
X89432845Y-65174304D01*
X89446104Y-65142297D01*
X89484516Y-65084807D01*
X89498988Y-65059743D01*
X89505848Y-65052882D01*
X89511416Y-65044550D01*
X89594550Y-64961416D01*
X89602882Y-64955848D01*
X89609743Y-64948988D01*
X89634807Y-64934516D01*
X89692297Y-64896104D01*
X89724304Y-64882845D01*
X89745390Y-64870672D01*
X89768905Y-64864371D01*
X89800915Y-64851112D01*
X89868736Y-64837621D01*
X89896684Y-64830133D01*
X89911150Y-64829184D01*
X89917670Y-64827888D01*
X89970583Y-64825289D01*
X89975000Y-64825000D01*
X90525000Y-64825000D01*
X90529417Y-64825289D01*
G37*
G36*
X90529417Y-62825289D02*
G01*
X90582329Y-62827888D01*
X90588848Y-62829184D01*
X90603316Y-62830133D01*
X90631266Y-62837622D01*
X90699084Y-62851112D01*
X90731091Y-62864370D01*
X90754610Y-62870672D01*
X90775698Y-62882847D01*
X90807702Y-62896104D01*
X90865184Y-62934512D01*
X90890257Y-62948988D01*
X90897119Y-62955850D01*
X90905449Y-62961416D01*
X90988583Y-63044550D01*
X90994148Y-63052879D01*
X91001012Y-63059743D01*
X91015489Y-63084818D01*
X91053895Y-63142297D01*
X91067150Y-63174298D01*
X91079328Y-63195390D01*
X91085630Y-63218912D01*
X91098887Y-63250915D01*
X91112374Y-63318722D01*
X91119867Y-63346684D01*
X91119867Y-63356388D01*
X91121822Y-63366217D01*
X91121822Y-63483782D01*
X91119867Y-63493610D01*
X91119867Y-63503316D01*
X91112373Y-63531280D01*
X91098887Y-63599084D01*
X91085631Y-63631084D01*
X91079328Y-63654610D01*
X91067149Y-63675704D01*
X91053895Y-63707702D01*
X91015493Y-63765173D01*
X91001012Y-63790257D01*
X90994146Y-63797122D01*
X90988583Y-63805449D01*
X90905449Y-63888583D01*
X90897122Y-63894146D01*
X90890257Y-63901012D01*
X90865173Y-63915493D01*
X90807702Y-63953895D01*
X90775704Y-63967149D01*
X90754610Y-63979328D01*
X90731084Y-63985631D01*
X90699084Y-63998887D01*
X90631280Y-64012373D01*
X90603316Y-64019867D01*
X90588840Y-64020815D01*
X90582329Y-64022111D01*
X90529423Y-64024710D01*
X90525000Y-64025000D01*
X90523522Y-64025000D01*
X89976478Y-64025000D01*
X89975000Y-64025000D01*
X89970577Y-64024710D01*
X89917670Y-64022111D01*
X89911157Y-64020815D01*
X89896684Y-64019867D01*
X89868722Y-64012374D01*
X89800915Y-63998887D01*
X89768912Y-63985630D01*
X89745390Y-63979328D01*
X89724298Y-63967150D01*
X89692297Y-63953895D01*
X89634818Y-63915489D01*
X89609743Y-63901012D01*
X89602879Y-63894148D01*
X89594550Y-63888583D01*
X89511416Y-63805449D01*
X89505850Y-63797119D01*
X89498988Y-63790257D01*
X89484512Y-63765184D01*
X89446104Y-63707702D01*
X89432847Y-63675698D01*
X89420672Y-63654610D01*
X89414370Y-63631091D01*
X89401112Y-63599084D01*
X89387624Y-63531274D01*
X89380133Y-63503316D01*
X89380133Y-63493610D01*
X89378178Y-63483782D01*
X89378178Y-63366217D01*
X89380133Y-63356388D01*
X89380133Y-63346684D01*
X89387623Y-63318728D01*
X89401112Y-63250915D01*
X89414371Y-63218905D01*
X89420672Y-63195390D01*
X89432845Y-63174304D01*
X89446104Y-63142297D01*
X89484516Y-63084807D01*
X89498988Y-63059743D01*
X89505848Y-63052882D01*
X89511416Y-63044550D01*
X89594550Y-62961416D01*
X89602882Y-62955848D01*
X89609743Y-62948988D01*
X89634807Y-62934516D01*
X89692297Y-62896104D01*
X89724304Y-62882845D01*
X89745390Y-62870672D01*
X89768905Y-62864371D01*
X89800915Y-62851112D01*
X89868736Y-62837621D01*
X89896684Y-62830133D01*
X89911150Y-62829184D01*
X89917670Y-62827888D01*
X89970583Y-62825289D01*
X89975000Y-62825000D01*
X90525000Y-62825000D01*
X90529417Y-62825289D01*
G37*
G36*
X96254850Y-59100964D02*
G01*
X96305040Y-59106787D01*
X96322189Y-59114359D01*
X96345671Y-59119030D01*
X96370810Y-59135827D01*
X96390696Y-59144608D01*
X96404277Y-59158189D01*
X96426777Y-59173223D01*
X96441810Y-59195722D01*
X96455391Y-59209303D01*
X96464170Y-59229186D01*
X96480970Y-59254329D01*
X96485641Y-59277812D01*
X96493212Y-59294959D01*
X96499033Y-59345139D01*
X96500000Y-59350000D01*
X96500000Y-60050000D01*
X96499032Y-60054863D01*
X96493212Y-60105040D01*
X96485641Y-60122185D01*
X96480970Y-60145671D01*
X96464169Y-60170815D01*
X96455391Y-60190696D01*
X96441812Y-60204274D01*
X96426777Y-60226777D01*
X96404274Y-60241812D01*
X96390696Y-60255391D01*
X96370815Y-60264169D01*
X96345671Y-60280970D01*
X96322185Y-60285641D01*
X96305040Y-60293212D01*
X96254861Y-60299032D01*
X96250000Y-60300000D01*
X94950000Y-60300000D01*
X94945138Y-60299032D01*
X94894959Y-60293212D01*
X94877812Y-60285641D01*
X94854329Y-60280970D01*
X94829186Y-60264170D01*
X94809303Y-60255391D01*
X94795722Y-60241810D01*
X94773223Y-60226777D01*
X94758189Y-60204277D01*
X94744608Y-60190696D01*
X94735827Y-60170810D01*
X94719030Y-60145671D01*
X94714359Y-60122189D01*
X94706787Y-60105040D01*
X94700964Y-60054849D01*
X94700000Y-60050000D01*
X94700000Y-59350000D01*
X94700964Y-59345150D01*
X94706787Y-59294959D01*
X94714359Y-59277808D01*
X94719030Y-59254329D01*
X94735826Y-59229191D01*
X94744608Y-59209303D01*
X94758191Y-59195719D01*
X94773223Y-59173223D01*
X94795719Y-59158191D01*
X94809303Y-59144608D01*
X94829191Y-59135826D01*
X94854329Y-59119030D01*
X94877808Y-59114359D01*
X94894959Y-59106787D01*
X94945151Y-59100964D01*
X94950000Y-59100000D01*
X96250000Y-59100000D01*
X96254850Y-59100964D01*
G37*
G36*
X92407403Y-58111418D02*
G01*
X92456066Y-58143934D01*
X92488582Y-58192597D01*
X92500000Y-58250000D01*
X92500000Y-58550000D01*
X92488582Y-58607403D01*
X92456066Y-58656066D01*
X92407403Y-58688582D01*
X92350000Y-58700000D01*
X91100000Y-58700000D01*
X91042597Y-58688582D01*
X90993934Y-58656066D01*
X90961418Y-58607403D01*
X90950000Y-58550000D01*
X90950000Y-58250000D01*
X90961418Y-58192597D01*
X90993934Y-58143934D01*
X91042597Y-58111418D01*
X91100000Y-58100000D01*
X92350000Y-58100000D01*
X92407403Y-58111418D01*
G37*
G36*
X92407403Y-57111418D02*
G01*
X92456066Y-57143934D01*
X92488582Y-57192597D01*
X92500000Y-57250000D01*
X92500000Y-57550000D01*
X92488582Y-57607403D01*
X92456066Y-57656066D01*
X92407403Y-57688582D01*
X92350000Y-57700000D01*
X91100000Y-57700000D01*
X91042597Y-57688582D01*
X90993934Y-57656066D01*
X90961418Y-57607403D01*
X90950000Y-57550000D01*
X90950000Y-57250000D01*
X90961418Y-57192597D01*
X90993934Y-57143934D01*
X91042597Y-57111418D01*
X91100000Y-57100000D01*
X92350000Y-57100000D01*
X92407403Y-57111418D01*
G37*
G36*
X92407403Y-56111418D02*
G01*
X92456066Y-56143934D01*
X92488582Y-56192597D01*
X92500000Y-56250000D01*
X92500000Y-56550000D01*
X92488582Y-56607403D01*
X92456066Y-56656066D01*
X92407403Y-56688582D01*
X92350000Y-56700000D01*
X91100000Y-56700000D01*
X91042597Y-56688582D01*
X90993934Y-56656066D01*
X90961418Y-56607403D01*
X90950000Y-56550000D01*
X90950000Y-56250000D01*
X90961418Y-56192597D01*
X90993934Y-56143934D01*
X91042597Y-56111418D01*
X91100000Y-56100000D01*
X92350000Y-56100000D01*
X92407403Y-56111418D01*
G37*
G36*
X92407403Y-55111418D02*
G01*
X92456066Y-55143934D01*
X92488582Y-55192597D01*
X92500000Y-55250000D01*
X92500000Y-55550000D01*
X92488582Y-55607403D01*
X92456066Y-55656066D01*
X92407403Y-55688582D01*
X92350000Y-55700000D01*
X91100000Y-55700000D01*
X91042597Y-55688582D01*
X90993934Y-55656066D01*
X90961418Y-55607403D01*
X90950000Y-55550000D01*
X90950000Y-55250000D01*
X90961418Y-55192597D01*
X90993934Y-55143934D01*
X91042597Y-55111418D01*
X91100000Y-55100000D01*
X92350000Y-55100000D01*
X92407403Y-55111418D01*
G37*
G36*
X96254850Y-53500964D02*
G01*
X96305040Y-53506787D01*
X96322189Y-53514359D01*
X96345671Y-53519030D01*
X96370810Y-53535827D01*
X96390696Y-53544608D01*
X96404277Y-53558189D01*
X96426777Y-53573223D01*
X96441810Y-53595722D01*
X96455391Y-53609303D01*
X96464170Y-53629186D01*
X96480970Y-53654329D01*
X96485641Y-53677812D01*
X96493212Y-53694959D01*
X96499033Y-53745139D01*
X96500000Y-53750000D01*
X96500000Y-54450000D01*
X96499032Y-54454863D01*
X96493212Y-54505040D01*
X96485641Y-54522185D01*
X96480970Y-54545671D01*
X96464169Y-54570815D01*
X96455391Y-54590696D01*
X96441812Y-54604274D01*
X96426777Y-54626777D01*
X96404274Y-54641812D01*
X96390696Y-54655391D01*
X96370815Y-54664169D01*
X96345671Y-54680970D01*
X96322185Y-54685641D01*
X96305040Y-54693212D01*
X96254861Y-54699032D01*
X96250000Y-54700000D01*
X94950000Y-54700000D01*
X94945138Y-54699032D01*
X94894959Y-54693212D01*
X94877812Y-54685641D01*
X94854329Y-54680970D01*
X94829186Y-54664170D01*
X94809303Y-54655391D01*
X94795722Y-54641810D01*
X94773223Y-54626777D01*
X94758189Y-54604277D01*
X94744608Y-54590696D01*
X94735827Y-54570810D01*
X94719030Y-54545671D01*
X94714359Y-54522189D01*
X94706787Y-54505040D01*
X94700964Y-54454849D01*
X94700000Y-54450000D01*
X94700000Y-53750000D01*
X94700964Y-53745150D01*
X94706787Y-53694959D01*
X94714359Y-53677808D01*
X94719030Y-53654329D01*
X94735826Y-53629191D01*
X94744608Y-53609303D01*
X94758191Y-53595719D01*
X94773223Y-53573223D01*
X94795719Y-53558191D01*
X94809303Y-53544608D01*
X94829191Y-53535826D01*
X94854329Y-53519030D01*
X94877808Y-53514359D01*
X94894959Y-53506787D01*
X94945151Y-53500964D01*
X94950000Y-53500000D01*
X96250000Y-53500000D01*
X96254850Y-53500964D01*
G37*
G36*
X96254850Y-51150964D02*
G01*
X96305040Y-51156787D01*
X96322189Y-51164359D01*
X96345671Y-51169030D01*
X96370810Y-51185827D01*
X96390696Y-51194608D01*
X96404277Y-51208189D01*
X96426777Y-51223223D01*
X96441810Y-51245722D01*
X96455391Y-51259303D01*
X96464170Y-51279186D01*
X96480970Y-51304329D01*
X96485641Y-51327812D01*
X96493212Y-51344959D01*
X96499033Y-51395139D01*
X96500000Y-51400000D01*
X96500000Y-52100000D01*
X96499032Y-52104863D01*
X96493212Y-52155040D01*
X96485641Y-52172185D01*
X96480970Y-52195671D01*
X96464169Y-52220815D01*
X96455391Y-52240696D01*
X96441812Y-52254274D01*
X96426777Y-52276777D01*
X96404274Y-52291812D01*
X96390696Y-52305391D01*
X96370815Y-52314169D01*
X96345671Y-52330970D01*
X96322185Y-52335641D01*
X96305040Y-52343212D01*
X96254861Y-52349032D01*
X96250000Y-52350000D01*
X94950000Y-52350000D01*
X94945138Y-52349032D01*
X94894959Y-52343212D01*
X94877812Y-52335641D01*
X94854329Y-52330970D01*
X94829186Y-52314170D01*
X94809303Y-52305391D01*
X94795722Y-52291810D01*
X94773223Y-52276777D01*
X94758189Y-52254277D01*
X94744608Y-52240696D01*
X94735827Y-52220810D01*
X94719030Y-52195671D01*
X94714359Y-52172189D01*
X94706787Y-52155040D01*
X94700964Y-52104849D01*
X94700000Y-52100000D01*
X94700000Y-51400000D01*
X94700964Y-51395150D01*
X94706787Y-51344959D01*
X94714359Y-51327808D01*
X94719030Y-51304329D01*
X94735826Y-51279191D01*
X94744608Y-51259303D01*
X94758191Y-51245719D01*
X94773223Y-51223223D01*
X94795719Y-51208191D01*
X94809303Y-51194608D01*
X94829191Y-51185826D01*
X94854329Y-51169030D01*
X94877808Y-51164359D01*
X94894959Y-51156787D01*
X94945151Y-51150964D01*
X94950000Y-51150000D01*
X96250000Y-51150000D01*
X96254850Y-51150964D01*
G37*
G36*
X59547002Y-49685739D02*
G01*
X59701110Y-49749573D01*
X59839804Y-49842245D01*
X59957754Y-49960195D01*
X60050426Y-50098889D01*
X60114260Y-50252997D01*
X60146802Y-50416597D01*
X60146802Y-50583403D01*
X60114260Y-50747003D01*
X60050426Y-50901111D01*
X59957754Y-51039805D01*
X59839804Y-51157755D01*
X59701110Y-51250427D01*
X59547002Y-51314261D01*
X59383402Y-51346803D01*
X59216596Y-51346803D01*
X59052996Y-51314261D01*
X58898888Y-51250427D01*
X58760194Y-51157755D01*
X58642244Y-51039805D01*
X58549572Y-50901111D01*
X58485738Y-50747003D01*
X58453196Y-50583403D01*
X58453196Y-50416597D01*
X58485738Y-50252997D01*
X58549572Y-50098889D01*
X58642244Y-49960195D01*
X58760194Y-49842245D01*
X58898888Y-49749573D01*
X59052996Y-49685739D01*
X59216596Y-49653197D01*
X59383402Y-49653197D01*
X59547002Y-49685739D01*
G37*
G36*
X63047002Y-49685739D02*
G01*
X63201110Y-49749573D01*
X63339804Y-49842245D01*
X63457754Y-49960195D01*
X63550426Y-50098889D01*
X63614260Y-50252997D01*
X63646802Y-50416597D01*
X63646802Y-50583403D01*
X63614260Y-50747003D01*
X63550426Y-50901111D01*
X63457754Y-51039805D01*
X63339804Y-51157755D01*
X63201110Y-51250427D01*
X63047002Y-51314261D01*
X62883402Y-51346803D01*
X62716596Y-51346803D01*
X62552996Y-51314261D01*
X62398888Y-51250427D01*
X62260194Y-51157755D01*
X62142244Y-51039805D01*
X62049572Y-50901111D01*
X61985738Y-50747003D01*
X61953196Y-50583403D01*
X61953196Y-50416597D01*
X61985738Y-50252997D01*
X62049572Y-50098889D01*
X62142244Y-49960195D01*
X62260194Y-49842245D01*
X62398888Y-49749573D01*
X62552996Y-49685739D01*
X62716596Y-49653197D01*
X62883402Y-49653197D01*
X63047002Y-49685739D01*
G37*
G36*
X66547003Y-49685739D02*
G01*
X66701111Y-49749573D01*
X66839805Y-49842245D01*
X66957755Y-49960195D01*
X67050427Y-50098889D01*
X67114261Y-50252997D01*
X67146803Y-50416597D01*
X67146803Y-50583403D01*
X67114261Y-50747003D01*
X67050427Y-50901111D01*
X66957755Y-51039805D01*
X66839805Y-51157755D01*
X66701111Y-51250427D01*
X66547003Y-51314261D01*
X66383403Y-51346803D01*
X66216597Y-51346803D01*
X66052997Y-51314261D01*
X65898889Y-51250427D01*
X65760195Y-51157755D01*
X65642245Y-51039805D01*
X65549573Y-50901111D01*
X65485739Y-50747003D01*
X65453197Y-50583403D01*
X65453197Y-50416597D01*
X65485739Y-50252997D01*
X65549573Y-50098889D01*
X65642245Y-49960195D01*
X65760195Y-49842245D01*
X65898889Y-49749573D01*
X66052997Y-49685739D01*
X66216597Y-49653197D01*
X66383403Y-49653197D01*
X66547003Y-49685739D01*
G37*
G36*
X70047003Y-49685739D02*
G01*
X70201111Y-49749573D01*
X70339805Y-49842245D01*
X70457755Y-49960195D01*
X70550427Y-50098889D01*
X70614261Y-50252997D01*
X70646803Y-50416597D01*
X70646803Y-50583403D01*
X70614261Y-50747003D01*
X70550427Y-50901111D01*
X70457755Y-51039805D01*
X70339805Y-51157755D01*
X70201111Y-51250427D01*
X70047003Y-51314261D01*
X69883403Y-51346803D01*
X69716597Y-51346803D01*
X69552997Y-51314261D01*
X69398889Y-51250427D01*
X69260195Y-51157755D01*
X69142245Y-51039805D01*
X69049573Y-50901111D01*
X68985739Y-50747003D01*
X68953197Y-50583403D01*
X68953197Y-50416597D01*
X68985739Y-50252997D01*
X69049573Y-50098889D01*
X69142245Y-49960195D01*
X69260195Y-49842245D01*
X69398889Y-49749573D01*
X69552997Y-49685739D01*
X69716597Y-49653197D01*
X69883403Y-49653197D01*
X70047003Y-49685739D01*
G37*
G36*
X76946852Y-49685739D02*
G01*
X77100960Y-49749573D01*
X77239654Y-49842245D01*
X77357604Y-49960195D01*
X77450276Y-50098889D01*
X77514110Y-50252997D01*
X77546652Y-50416597D01*
X77546652Y-50583403D01*
X77514110Y-50747003D01*
X77450276Y-50901111D01*
X77357604Y-51039805D01*
X77239654Y-51157755D01*
X77100960Y-51250427D01*
X76946852Y-51314261D01*
X76783252Y-51346803D01*
X76616446Y-51346803D01*
X76452846Y-51314261D01*
X76298738Y-51250427D01*
X76160044Y-51157755D01*
X76042094Y-51039805D01*
X75949422Y-50901111D01*
X75885588Y-50747003D01*
X75853046Y-50583403D01*
X75853046Y-50416597D01*
X75885588Y-50252997D01*
X75949422Y-50098889D01*
X76042094Y-49960195D01*
X76160044Y-49842245D01*
X76298738Y-49749573D01*
X76452846Y-49685739D01*
X76616446Y-49653197D01*
X76783252Y-49653197D01*
X76946852Y-49685739D01*
G37*
G36*
X80446852Y-49685739D02*
G01*
X80600960Y-49749573D01*
X80739654Y-49842245D01*
X80857604Y-49960195D01*
X80950276Y-50098889D01*
X81014110Y-50252997D01*
X81046652Y-50416597D01*
X81046652Y-50583403D01*
X81014110Y-50747003D01*
X80950276Y-50901111D01*
X80857604Y-51039805D01*
X80739654Y-51157755D01*
X80600960Y-51250427D01*
X80446852Y-51314261D01*
X80283252Y-51346803D01*
X80116446Y-51346803D01*
X79952846Y-51314261D01*
X79798738Y-51250427D01*
X79660044Y-51157755D01*
X79542094Y-51039805D01*
X79449422Y-50901111D01*
X79385588Y-50747003D01*
X79353046Y-50583403D01*
X79353046Y-50416597D01*
X79385588Y-50252997D01*
X79449422Y-50098889D01*
X79542094Y-49960195D01*
X79660044Y-49842245D01*
X79798738Y-49749573D01*
X79952846Y-49685739D01*
X80116446Y-49653197D01*
X80283252Y-49653197D01*
X80446852Y-49685739D01*
G37*
G36*
X83946853Y-49685739D02*
G01*
X84100961Y-49749573D01*
X84239655Y-49842245D01*
X84357605Y-49960195D01*
X84450277Y-50098889D01*
X84514111Y-50252997D01*
X84546653Y-50416597D01*
X84546653Y-50583403D01*
X84514111Y-50747003D01*
X84450277Y-50901111D01*
X84357605Y-51039805D01*
X84239655Y-51157755D01*
X84100961Y-51250427D01*
X83946853Y-51314261D01*
X83783253Y-51346803D01*
X83616447Y-51346803D01*
X83452847Y-51314261D01*
X83298739Y-51250427D01*
X83160045Y-51157755D01*
X83042095Y-51039805D01*
X82949423Y-50901111D01*
X82885589Y-50747003D01*
X82853047Y-50583403D01*
X82853047Y-50416597D01*
X82885589Y-50252997D01*
X82949423Y-50098889D01*
X83042095Y-49960195D01*
X83160045Y-49842245D01*
X83298739Y-49749573D01*
X83452847Y-49685739D01*
X83616447Y-49653197D01*
X83783253Y-49653197D01*
X83946853Y-49685739D01*
G37*
G36*
X87446853Y-49685739D02*
G01*
X87600961Y-49749573D01*
X87739655Y-49842245D01*
X87857605Y-49960195D01*
X87950277Y-50098889D01*
X88014111Y-50252997D01*
X88046653Y-50416597D01*
X88046653Y-50583403D01*
X88014111Y-50747003D01*
X87950277Y-50901111D01*
X87857605Y-51039805D01*
X87739655Y-51157755D01*
X87600961Y-51250427D01*
X87446853Y-51314261D01*
X87283253Y-51346803D01*
X87116447Y-51346803D01*
X86952847Y-51314261D01*
X86798739Y-51250427D01*
X86660045Y-51157755D01*
X86542095Y-51039805D01*
X86449423Y-50901111D01*
X86385589Y-50747003D01*
X86353047Y-50583403D01*
X86353047Y-50416597D01*
X86385589Y-50252997D01*
X86449423Y-50098889D01*
X86542095Y-49960195D01*
X86660045Y-49842245D01*
X86798739Y-49749573D01*
X86952847Y-49685739D01*
X87116447Y-49653197D01*
X87283253Y-49653197D01*
X87446853Y-49685739D01*
G37*
G36*
X92407403Y-50161418D02*
G01*
X92456066Y-50193934D01*
X92488582Y-50242597D01*
X92500000Y-50300000D01*
X92500000Y-50600000D01*
X92488582Y-50657403D01*
X92456066Y-50706066D01*
X92407403Y-50738582D01*
X92350000Y-50750000D01*
X91100000Y-50750000D01*
X91042597Y-50738582D01*
X90993934Y-50706066D01*
X90961418Y-50657403D01*
X90950000Y-50600000D01*
X90950000Y-50300000D01*
X90961418Y-50242597D01*
X90993934Y-50193934D01*
X91042597Y-50161418D01*
X91100000Y-50150000D01*
X92350000Y-50150000D01*
X92407403Y-50161418D01*
G37*
G36*
X92407403Y-49161418D02*
G01*
X92456066Y-49193934D01*
X92488582Y-49242597D01*
X92500000Y-49300000D01*
X92500000Y-49600000D01*
X92488582Y-49657403D01*
X92456066Y-49706066D01*
X92407403Y-49738582D01*
X92350000Y-49750000D01*
X91100000Y-49750000D01*
X91042597Y-49738582D01*
X90993934Y-49706066D01*
X90961418Y-49657403D01*
X90950000Y-49600000D01*
X90950000Y-49300000D01*
X90961418Y-49242597D01*
X90993934Y-49193934D01*
X91042597Y-49161418D01*
X91100000Y-49150000D01*
X92350000Y-49150000D01*
X92407403Y-49161418D01*
G37*
G36*
X92407403Y-48161418D02*
G01*
X92456066Y-48193934D01*
X92488582Y-48242597D01*
X92500000Y-48300000D01*
X92500000Y-48600000D01*
X92488582Y-48657403D01*
X92456066Y-48706066D01*
X92407403Y-48738582D01*
X92350000Y-48750000D01*
X91100000Y-48750000D01*
X91042597Y-48738582D01*
X90993934Y-48706066D01*
X90961418Y-48657403D01*
X90950000Y-48600000D01*
X90950000Y-48300000D01*
X90961418Y-48242597D01*
X90993934Y-48193934D01*
X91042597Y-48161418D01*
X91100000Y-48150000D01*
X92350000Y-48150000D01*
X92407403Y-48161418D01*
G37*
G36*
X92407403Y-47161418D02*
G01*
X92456066Y-47193934D01*
X92488582Y-47242597D01*
X92500000Y-47300000D01*
X92500000Y-47600000D01*
X92488582Y-47657403D01*
X92456066Y-47706066D01*
X92407403Y-47738582D01*
X92350000Y-47750000D01*
X91100000Y-47750000D01*
X91042597Y-47738582D01*
X90993934Y-47706066D01*
X90961418Y-47657403D01*
X90950000Y-47600000D01*
X90950000Y-47300000D01*
X90961418Y-47242597D01*
X90993934Y-47193934D01*
X91042597Y-47161418D01*
X91100000Y-47150000D01*
X92350000Y-47150000D01*
X92407403Y-47161418D01*
G37*
G36*
X96254850Y-45550964D02*
G01*
X96305040Y-45556787D01*
X96322189Y-45564359D01*
X96345671Y-45569030D01*
X96370810Y-45585827D01*
X96390696Y-45594608D01*
X96404277Y-45608189D01*
X96426777Y-45623223D01*
X96441810Y-45645722D01*
X96455391Y-45659303D01*
X96464170Y-45679186D01*
X96480970Y-45704329D01*
X96485641Y-45727812D01*
X96493212Y-45744959D01*
X96499033Y-45795139D01*
X96500000Y-45800000D01*
X96500000Y-46500000D01*
X96499032Y-46504863D01*
X96493212Y-46555040D01*
X96485641Y-46572185D01*
X96480970Y-46595671D01*
X96464169Y-46620815D01*
X96455391Y-46640696D01*
X96441812Y-46654274D01*
X96426777Y-46676777D01*
X96404274Y-46691812D01*
X96390696Y-46705391D01*
X96370815Y-46714169D01*
X96345671Y-46730970D01*
X96322185Y-46735641D01*
X96305040Y-46743212D01*
X96254861Y-46749032D01*
X96250000Y-46750000D01*
X94950000Y-46750000D01*
X94945138Y-46749032D01*
X94894959Y-46743212D01*
X94877812Y-46735641D01*
X94854329Y-46730970D01*
X94829186Y-46714170D01*
X94809303Y-46705391D01*
X94795722Y-46691810D01*
X94773223Y-46676777D01*
X94758189Y-46654277D01*
X94744608Y-46640696D01*
X94735827Y-46620810D01*
X94719030Y-46595671D01*
X94714359Y-46572189D01*
X94706787Y-46555040D01*
X94700964Y-46504849D01*
X94700000Y-46500000D01*
X94700000Y-45800000D01*
X94700964Y-45795150D01*
X94706787Y-45744959D01*
X94714359Y-45727808D01*
X94719030Y-45704329D01*
X94735826Y-45679191D01*
X94744608Y-45659303D01*
X94758191Y-45645719D01*
X94773223Y-45623223D01*
X94795719Y-45608191D01*
X94809303Y-45594608D01*
X94829191Y-45585826D01*
X94854329Y-45569030D01*
X94877808Y-45564359D01*
X94894959Y-45556787D01*
X94945151Y-45550964D01*
X94950000Y-45550000D01*
X96250000Y-45550000D01*
X96254850Y-45550964D01*
G37*
G36*
X54724557Y-41430393D02*
G01*
X54888719Y-41483733D01*
X55042515Y-41562096D01*
X55182160Y-41663553D01*
X55304214Y-41785607D01*
X55405671Y-41925252D01*
X55484034Y-42079048D01*
X55537374Y-42243210D01*
X55564376Y-42413695D01*
X55564376Y-42586305D01*
X55537374Y-42756790D01*
X55484034Y-42920952D01*
X55405671Y-43074748D01*
X55304214Y-43214393D01*
X55182160Y-43336447D01*
X55042515Y-43437904D01*
X54888719Y-43516267D01*
X54724557Y-43569607D01*
X54554072Y-43596609D01*
X54381462Y-43596609D01*
X54210977Y-43569607D01*
X54046815Y-43516267D01*
X53893019Y-43437904D01*
X53753374Y-43336447D01*
X53631320Y-43214393D01*
X53529863Y-43074748D01*
X53451500Y-42920952D01*
X53398160Y-42756790D01*
X53371158Y-42586305D01*
X53371158Y-42413695D01*
X53398160Y-42243210D01*
X53451500Y-42079048D01*
X53529863Y-41925252D01*
X53631320Y-41785607D01*
X53753374Y-41663553D01*
X53893019Y-41562096D01*
X54046815Y-41483733D01*
X54210977Y-41430393D01*
X54381462Y-41403391D01*
X54554072Y-41403391D01*
X54724557Y-41430393D01*
G37*
G36*
X94756790Y-41430393D02*
G01*
X94920952Y-41483733D01*
X95074748Y-41562096D01*
X95214393Y-41663553D01*
X95336447Y-41785607D01*
X95437904Y-41925252D01*
X95516267Y-42079048D01*
X95569607Y-42243210D01*
X95596609Y-42413695D01*
X95596609Y-42586305D01*
X95569607Y-42756790D01*
X95516267Y-42920952D01*
X95437904Y-43074748D01*
X95336447Y-43214393D01*
X95214393Y-43336447D01*
X95074748Y-43437904D01*
X94920952Y-43516267D01*
X94756790Y-43569607D01*
X94586305Y-43596609D01*
X94413695Y-43596609D01*
X94243210Y-43569607D01*
X94079048Y-43516267D01*
X93925252Y-43437904D01*
X93785607Y-43336447D01*
X93663553Y-43214393D01*
X93562096Y-43074748D01*
X93483733Y-42920952D01*
X93430393Y-42756790D01*
X93403391Y-42586305D01*
X93403391Y-42413695D01*
X93430393Y-42243210D01*
X93483733Y-42079048D01*
X93562096Y-41925252D01*
X93663553Y-41785607D01*
X93785607Y-41663553D01*
X93925252Y-41562096D01*
X94079048Y-41483733D01*
X94243210Y-41430393D01*
X94413695Y-41403391D01*
X94586305Y-41403391D01*
X94756790Y-41430393D01*
G37*
M02*
